<svg style="fill-rule:evenodd;clip-rule:evenodd;stroke-linejoin:round;stroke-miterlimit:2;" xml:space="preserve" xmlns:xlink="http://www.w3.org/1999/xlink" xmlns="http://www.w3.org/2000/svg" version="1.1" viewBox="0 0 547 150" height="100%" width="100%">
    <g transform="matrix(1,0,0,1,0,8)">
        <path style="fill-rule:nonzero;" d="M171.158,114.308C170.196,114.308 169.627,113.826 169.452,112.864L150.683,24.139L150.552,23.614C150.552,22.827 151.033,22.433 151.996,22.433L165.252,22.433C166.302,22.433 166.871,22.914 166.958,23.877L177.852,87.008C177.939,87.27 178.071,87.401 178.246,87.401C178.421,87.401 178.552,87.27 178.639,87.008L189.271,23.877C189.358,22.914 189.927,22.433 190.977,22.433L203.839,22.433C204.977,22.433 205.414,23.002 205.152,24.139L186.252,112.864C186.077,113.826 185.508,114.308 184.546,114.308L171.158,114.308Z"></path>
    </g>
    <g transform="matrix(1,0,0,1,0,8)">
        <path style="fill-rule:nonzero;" d="M229.929,115.358C222.667,115.358 216.935,113.433 212.736,109.583C208.623,105.733 206.567,100.526 206.567,93.964L206.567,67.583C206.567,61.108 208.667,55.945 212.867,52.095C217.067,48.158 222.754,46.189 229.929,46.189C237.192,46.189 242.923,48.158 247.123,52.095C251.323,55.945 253.423,61.108 253.423,67.583L253.423,93.964C253.423,100.526 251.323,105.733 247.123,109.583C243.01,113.433 237.279,115.358 229.929,115.358ZM229.929,102.101C232.379,102.101 234.348,101.27 235.835,99.608C237.41,97.858 238.198,95.583 238.198,92.783L238.198,68.633C238.198,65.92 237.41,63.689 235.835,61.939C234.348,60.189 232.379,59.314 229.929,59.314C227.479,59.314 225.51,60.189 224.023,61.939C222.535,63.602 221.792,65.833 221.792,68.633L221.792,92.783C221.792,95.583 222.535,97.858 224.023,99.608C225.51,101.27 227.479,102.101 229.929,102.101Z"></path>
    </g>
    <g transform="matrix(1,0,0,1,0,8)">
        <path style="fill-rule:nonzero;" d="M291.044,56.426C291.044,56.864 290.869,57.258 290.519,57.608C290.257,57.87 289.907,58.002 289.469,58.002L281.332,58.002C280.894,58.002 280.676,58.22 280.676,58.658L280.676,93.045C280.676,96.108 281.244,98.251 282.382,99.476C283.519,100.614 285.226,101.139 287.501,101.051L288.419,101.051C288.857,101.051 289.207,101.226 289.469,101.576C289.819,101.839 289.994,102.189 289.994,102.626L289.994,112.733C289.994,113.17 289.819,113.564 289.469,113.914C289.207,114.176 288.857,114.308 288.419,114.308L283.957,114.308C278.007,114.308 273.501,113.214 270.438,111.026C267.463,108.839 265.976,104.726 265.976,98.689L265.976,58.658C265.976,58.22 265.757,58.002 265.319,58.002L260.726,58.002C260.288,58.002 259.894,57.87 259.544,57.608C259.282,57.258 259.151,56.864 259.151,56.426L259.151,48.814C259.151,48.377 259.282,48.027 259.544,47.764C259.894,47.414 260.288,47.239 260.726,47.239L265.319,47.239C265.757,47.239 265.976,47.02 265.976,46.583L265.976,32.145C265.976,31.708 266.107,31.358 266.369,31.095C266.719,30.745 267.113,30.57 267.551,30.57L279.101,30.57C279.538,30.57 279.888,30.745 280.151,31.095C280.501,31.358 280.676,31.708 280.676,32.145L280.676,46.583C280.676,47.02 280.894,47.239 281.332,47.239L289.469,47.239C289.907,47.239 290.257,47.414 290.519,47.764C290.869,48.027 291.044,48.377 291.044,48.814L291.044,56.426Z"></path>
    </g>
    <g transform="matrix(1,0,0,1,0,8)">
        <path style="fill-rule:nonzero;" d="M344.099,84.776C344.099,85.214 343.924,85.608 343.574,85.958C343.311,86.22 342.961,86.351 342.524,86.351L313.518,86.351C313.08,86.351 312.861,86.57 312.861,87.008L312.861,92.914C312.861,95.626 313.605,97.858 315.093,99.608C316.58,101.358 318.505,102.233 320.868,102.233C322.88,102.233 324.586,101.62 325.986,100.395C327.474,99.083 328.436,97.42 328.874,95.408C329.136,94.533 329.705,94.095 330.58,94.095L342.261,94.62C342.699,94.62 343.049,94.795 343.311,95.145C343.661,95.408 343.792,95.801 343.705,96.326C343.092,102.451 340.861,107.176 337.011,110.501C333.161,113.739 327.78,115.358 320.868,115.358C313.693,115.358 308.005,113.476 303.805,109.714C299.693,105.864 297.636,100.658 297.636,94.095L297.636,67.452C297.636,61.064 299.693,55.945 303.805,52.095C308.005,48.158 313.693,46.189 320.868,46.189C328.043,46.189 333.686,48.158 337.799,52.095C341.999,55.945 344.099,61.064 344.099,67.452L344.099,84.776ZM320.868,59.314C318.505,59.314 316.58,60.189 315.093,61.939C313.605,63.689 312.861,65.92 312.861,68.633L312.861,74.539C312.861,74.976 313.08,75.195 313.518,75.195L328.349,75.195C328.786,75.195 329.005,74.976 329.005,74.539L329.005,68.633C329.005,65.833 328.261,63.602 326.774,61.939C325.286,60.189 323.318,59.314 320.868,59.314Z"></path>
    </g>
    <g transform="matrix(1,0,0,1,0,8)">
        <path style="fill-rule:nonzero;" d="M381.082,46.189C386.857,46.189 391.364,48.07 394.601,51.833C397.926,55.595 399.589,60.801 399.589,67.452L399.589,94.095C399.589,100.57 397.97,105.733 394.732,109.583C391.495,113.433 386.945,115.358 381.082,115.358C376.357,115.358 372.42,113.826 369.27,110.764C369.095,110.589 368.92,110.545 368.745,110.633C368.57,110.72 368.482,110.895 368.482,111.158L368.482,112.733C368.482,113.17 368.307,113.564 367.957,113.914C367.695,114.176 367.345,114.308 366.907,114.308L354.832,114.308C354.395,114.308 354.001,114.176 353.651,113.914C353.389,113.564 353.257,113.17 353.257,112.733L353.257,24.008C353.257,23.57 353.389,23.22 353.651,22.958C354.001,22.608 354.395,22.433 354.832,22.433L366.907,22.433C367.345,22.433 367.695,22.608 367.957,22.958C368.307,23.22 368.482,23.57 368.482,24.008L368.482,50.52C368.482,50.783 368.57,50.958 368.745,51.045C369.007,51.045 369.27,50.87 369.532,50.52C371.195,49.033 373.032,47.939 375.045,47.239C377.145,46.539 379.157,46.189 381.082,46.189ZM384.495,68.633C384.495,65.833 383.751,63.602 382.264,61.939C380.776,60.189 378.807,59.314 376.357,59.314C374.257,59.314 372.507,60.014 371.107,61.414C369.707,62.727 368.832,64.52 368.482,66.795L368.482,94.751C368.832,97.026 369.707,98.864 371.107,100.264C372.507,101.576 374.257,102.233 376.357,102.233C378.807,102.233 380.776,101.401 382.264,99.739C383.751,97.989 384.495,95.714 384.495,92.914L384.495,68.633Z"></path>
    </g>
    <g transform="matrix(1,0,0,1,0,8)">
        <path style="fill-rule:nonzero;" d="M454.651,84.776C454.651,85.214 454.476,85.608 454.126,85.958C453.863,86.22 453.513,86.351 453.076,86.351L424.07,86.351C423.632,86.351 423.413,86.57 423.413,87.008L423.413,92.914C423.413,95.626 424.157,97.858 425.645,99.608C427.132,101.358 429.057,102.233 431.42,102.233C433.432,102.233 435.138,101.62 436.538,100.395C438.026,99.083 438.988,97.42 439.426,95.408C439.688,94.533 440.257,94.095 441.132,94.095L452.813,94.62C453.251,94.62 453.601,94.795 453.863,95.145C454.213,95.408 454.344,95.801 454.257,96.326C453.644,102.451 451.413,107.176 447.563,110.501C443.713,113.739 438.332,115.358 431.42,115.358C424.245,115.358 418.557,113.476 414.357,109.714C410.245,105.864 408.188,100.658 408.188,94.095L408.188,67.452C408.188,61.064 410.245,55.945 414.357,52.095C418.557,48.158 424.245,46.189 431.42,46.189C438.595,46.189 444.238,48.158 448.351,52.095C452.551,55.945 454.651,61.064 454.651,67.452L454.651,84.776ZM431.42,59.314C429.057,59.314 427.132,60.189 425.645,61.939C424.157,63.689 423.413,65.92 423.413,68.633L423.413,74.539C423.413,74.976 423.632,75.195 424.07,75.195L438.901,75.195C439.338,75.195 439.557,74.976 439.557,74.539L439.557,68.633C439.557,65.833 438.813,63.602 437.326,61.939C435.838,60.189 433.87,59.314 431.42,59.314Z"></path>
    </g>
    <g transform="matrix(1,0,0,1,0,8)">
        <path style="fill-rule:nonzero;" d="M486.006,46.189C492.918,46.189 498.518,48.202 502.806,52.227C507.093,56.252 509.237,61.545 509.237,68.108L509.237,112.733C509.237,113.17 509.062,113.564 508.712,113.914C508.45,114.176 508.1,114.308 507.662,114.308L495.587,114.308C495.15,114.308 494.756,114.176 494.406,113.914C494.143,113.564 494.012,113.17 494.012,112.733L494.012,110.239C494.012,109.976 493.925,109.801 493.75,109.714C493.575,109.626 493.4,109.714 493.225,109.976C490.162,113.564 485.7,115.358 479.837,115.358C474.85,115.358 470.431,113.958 466.581,111.158C462.819,108.27 460.937,103.064 460.937,95.539C460.937,87.664 463.212,82.064 467.762,78.739C472.4,75.414 478.656,73.751 486.531,73.751L493.356,73.751C493.793,73.751 494.012,73.533 494.012,73.095L494.012,69.683C494.012,66.533 493.225,64.039 491.65,62.202C490.075,60.277 488.106,59.314 485.743,59.314C483.906,59.314 482.375,59.926 481.15,61.152C479.925,62.289 479.181,63.864 478.919,65.876C478.831,66.927 478.262,67.452 477.212,67.452L464.481,67.452C463.431,67.452 462.95,66.927 463.037,65.876C463.475,59.926 465.794,55.158 469.994,51.57C474.281,47.983 479.619,46.189 486.006,46.189ZM484.037,102.758C486.662,102.758 488.981,101.926 490.993,100.264C493.006,98.601 494.012,96.283 494.012,93.308L494.012,85.826C494.012,85.389 493.793,85.17 493.356,85.17L486.531,85.17C483.556,85.17 481.15,86.001 479.312,87.664C477.475,89.239 476.556,91.558 476.556,94.62C476.556,97.333 477.256,99.389 478.656,100.789C480.056,102.101 481.85,102.758 484.037,102.758Z"></path>
    </g>
    <g transform="matrix(1,0,0,1,0,8)">
        <path style="fill-rule:nonzero;" d="M546.852,56.426C546.852,56.864 546.677,57.258 546.327,57.608C546.065,57.87 545.715,58.002 545.277,58.002L537.14,58.002C536.702,58.002 536.484,58.22 536.484,58.658L536.484,93.045C536.484,96.108 537.052,98.251 538.19,99.476C539.327,100.614 541.034,101.139 543.309,101.051L544.227,101.051C544.665,101.051 545.015,101.226 545.277,101.576C545.627,101.839 545.802,102.189 545.802,102.626L545.802,112.733C545.802,113.17 545.627,113.564 545.277,113.914C545.015,114.176 544.665,114.308 544.227,114.308L539.765,114.308C533.815,114.308 529.309,113.214 526.246,111.026C523.271,108.839 521.784,104.726 521.784,98.689L521.784,58.658C521.784,58.22 521.565,58.002 521.128,58.002L516.534,58.002C516.096,58.002 515.703,57.87 515.353,57.608C515.09,57.258 514.959,56.864 514.959,56.426L514.959,48.814C514.959,48.377 515.09,48.027 515.353,47.764C515.703,47.414 516.096,47.239 516.534,47.239L521.128,47.239C521.565,47.239 521.784,47.02 521.784,46.583L521.784,32.145C521.784,31.708 521.915,31.358 522.177,31.095C522.527,30.745 522.921,30.57 523.359,30.57L534.909,30.57C535.346,30.57 535.696,30.745 535.959,31.095C536.309,31.358 536.484,31.708 536.484,32.145L536.484,46.583C536.484,47.02 536.702,47.239 537.14,47.239L545.277,47.239C545.715,47.239 546.065,47.414 546.327,47.764C546.677,48.027 546.852,48.377 546.852,48.814L546.852,56.426Z"></path>
    </g>
    <g transform="matrix(1,0,0,1,0,8)">
        <path style="fill:rgb(85,67,89);fill-rule:nonzero;" d="M6.206,2.813C5.541,2.016 5.762,1.485 5.984,0.954C6.228,0.674 6.537,0.489 6.871,0.422C6.688,1.199 6.613,2.007 6.649,2.813L6.206,2.813ZM51.375,9.454C51.153,9.985 51.153,10.251 52.039,10.782C51.596,10.522 52.261,9.725 51.375,9.46L51.375,9.454ZM1.773,125.54L1.773,126.071L2.216,126.071C2.438,125.805 2.438,125.274 2.438,125.009C1.995,125.009 1.995,125.274 1.773,125.54ZM6.871,131.65L6.871,130.587C6.649,130.853 6.427,131.384 6.206,131.65L6.871,131.65ZM32.358,122.086C32.58,122.086 32.58,121.821 32.802,121.821L32.58,121.555C32.358,121.555 32.358,121.821 32.137,121.821L32.358,122.086ZM24.601,122.086C24.601,121.821 24.38,121.821 24.158,121.821C24.158,122.086 24.38,122.086 24.601,122.086ZM0.887,3.344C0.443,3.61 0.222,4.673 0.443,5.47C0.887,5.204 1.551,4.938 1.995,4.407C1.773,3.876 1.33,3.344 0.887,3.344ZM0,2.282L0,2.813C0.665,3.079 1.108,2.813 1.551,2.282C1.108,2.016 0.887,1.219 0,2.282ZM8.865,59.661C9.087,59.926 9.53,60.192 9.752,59.926C9.973,59.661 9.752,59.129 9.309,58.598C9.087,58.864 8.644,59.129 8.865,59.661ZM9.087,53.816C9.309,53.551 9.752,53.02 9.752,52.754C9.752,52.488 9.53,51.957 8.644,52.488C9.087,52.754 8.644,53.551 9.087,53.816ZM8.422,18.752L8.422,18.486C8.506,18.381 8.57,18.256 8.608,18.118C8.647,17.98 8.659,17.833 8.644,17.689C8.422,17.689 7.979,17.955 7.757,17.955L8.422,18.752ZM7.757,10.782L7.757,12.642C7.757,12.111 8.865,11.845 7.757,10.782ZM9.53,56.207C9.309,56.739 8.865,57.27 8.865,57.801C8.953,57.7 9.058,57.624 9.173,57.578C9.288,57.532 9.41,57.518 9.53,57.535L9.53,56.207ZM9.53,63.114L9.087,63.114C9.309,63.645 9.53,63.911 9.53,64.442L9.53,63.114ZM9.53,93.132L9.752,93.397C9.973,93.397 9.973,93.132 10.195,92.866C9.973,92.866 9.973,92.6 9.752,92.6C9.631,92.743 9.553,92.93 9.53,93.132ZM9.087,35.487C9.087,35.222 9.087,34.956 8.865,34.956C8.644,34.956 8.644,35.222 8.422,35.222C8.509,35.322 8.614,35.399 8.729,35.445C8.844,35.491 8.967,35.505 9.087,35.487ZM8.644,40.003L9.087,40.003C9.087,39.737 9.087,39.472 8.422,39.472C8.422,39.737 8.644,39.737 8.644,40.003ZM9.309,73.74C9.309,73.474 9.53,73.474 9.53,73.208C9.309,73.208 9.309,73.474 9.087,73.474L9.309,73.74ZM9.752,50.894C9.632,50.876 9.509,50.891 9.394,50.937C9.279,50.983 9.174,51.059 9.087,51.16L9.309,51.426C9.752,51.426 9.752,51.16 9.752,50.894ZM10.417,111.195L10.417,110.664C10.195,110.664 10.195,110.929 9.973,110.929C9.973,111.195 10.195,111.461 10.417,111.195ZM10.195,97.913L9.973,97.647L9.752,97.913L10.195,97.913ZM8.644,28.846L8.2,28.846L8.422,29.112C8.644,29.112 8.644,29.112 8.644,28.846ZM9.309,36.815L9.087,36.55L8.865,36.815L9.087,37.081L9.309,36.815ZM95.422,8.392L95.644,8.392C95.2,7.329 95.644,6.266 94.757,5.47C94.979,4.141 94.092,3.079 95.422,1.751C95.2,1.751 94.979,1.485 94.757,1.485C93.871,2.813 94.757,4.673 94.092,6.266C94.757,6.798 94.979,7.595 95.422,8.392ZM92.984,7.86C93.427,8.126 93.871,8.657 94.314,8.392L94.535,7.86C94.092,7.063 93.206,6.798 92.541,6.001C92.319,6.001 92.097,6.266 91.876,6.266C92.097,6.798 92.541,7.329 92.984,7.86ZM96.752,7.063C96.752,6.266 96.53,5.47 96.087,5.204C95.865,5.204 95.644,5.735 95.644,6.001C95.865,6.532 95.865,7.063 96.752,7.063ZM93.649,4.938C93.626,4.737 93.548,4.55 93.427,4.407C93.206,4.407 92.762,4.673 92.541,4.673C92.762,4.938 92.762,5.47 93.649,4.938ZM96.973,3.344C96.973,3.079 96.752,2.548 96.53,2.548C96.308,2.548 96.087,3.079 96.53,3.61C96.698,3.582 96.854,3.489 96.973,3.344ZM90.546,8.392C90.324,8.657 90.103,8.923 90.324,9.189L90.989,9.189L90.989,8.657C90.989,8.126 90.768,8.392 90.546,8.392ZM92.541,10.782C92.762,10.782 92.762,10.251 92.762,9.985L92.541,9.72C92.457,9.824 92.393,9.95 92.355,10.088C92.316,10.226 92.304,10.373 92.319,10.517L92.541,10.782ZM96.308,9.189C96.53,8.923 96.752,8.923 96.973,8.657C96.752,8.657 96.53,8.392 96.308,9.189ZM92.319,1.751C92.319,1.485 92.097,1.485 92.097,1.219C92.097,1.485 91.876,1.485 91.876,1.751L92.097,2.016L92.319,1.751ZM63.507,11.048L63.507,10.517L63.285,10.782L63.507,11.048ZM98.968,8.657L98.746,8.392L98.525,8.657L98.746,8.923L98.968,8.657ZM63.95,11.048L64.172,11.314C64.393,11.314 64.615,11.048 64.393,10.782C64.172,10.517 63.95,10.782 63.95,11.048ZM90.324,3.079C90.324,2.813 90.324,2.548 90.103,2.548C90.103,2.813 90.103,3.079 90.324,3.079ZM122.461,85.428C122.683,84.897 124.013,85.694 122.683,83.834C122.24,83.568 121.796,83.568 121.353,83.303C121.131,83.303 121.131,83.037 120.91,82.771L122.24,81.975C121.131,81.975 121.575,80.912 121.575,80.115C122.24,80.115 122.683,79.584 122.904,78.521C122.613,78.511 122.323,78.578 122.056,78.715C121.788,78.853 121.548,79.059 121.353,79.318C121.353,77.99 121.353,76.927 121.796,75.599C121.796,75.068 121.575,74.537 121.131,74.005C121.796,72.943 122.24,71.614 121.575,70.286C121.353,70.021 120.91,70.021 120.688,69.755C120.688,69.489 121.131,68.692 121.353,68.692C121.796,68.958 122.461,68.958 122.904,69.755C122.76,69.333 122.685,68.882 122.683,68.427C121.131,67.63 121.575,65.505 121.353,63.911L121.796,63.645C122.018,63.114 118.25,64.177 122.24,62.051L121.575,61.254C121.796,61.254 122.24,61.254 122.461,60.989L122.461,60.458C121.131,60.192 121.131,58.332 121.575,57.27C121.575,57.004 121.353,56.739 121.353,56.473C121.796,54.348 121.796,52.488 121.353,50.629C121.131,50.097 122.018,50.097 122.683,50.097C122.66,49.896 122.582,49.709 122.461,49.566C120.91,49.301 121.131,47.175 121.575,46.113C121.796,45.847 122.461,46.113 122.904,46.113C122.683,45.582 122.461,45.316 122.24,44.785L121.796,45.316C121.575,43.191 121.131,41.066 121.796,38.941C122.018,38.144 120.91,38.144 120.91,37.878C121.131,37.081 121.575,36.284 121.796,35.487C122.018,35.753 122.461,35.487 122.683,34.956C122.683,34.425 121.796,34.425 121.575,34.159C121.353,33.628 121.353,32.299 122.018,31.768C122.24,31.768 122.683,32.034 122.683,31.237C122.683,30.971 122.018,30.706 122.018,30.44C121.796,28.846 121.796,27.518 121.353,25.924C121.353,25.393 121.575,24.596 122.461,24.596L122.683,24.065C122.24,23.002 121.575,21.674 120.245,21.674C120.466,21.408 120.466,21.142 120.688,21.142L121.353,21.142C121.796,20.346 122.461,21.142 122.904,20.346C122.24,19.549 120.688,19.814 121.131,18.22C121.131,17.689 122.018,17.955 121.796,16.627C121.353,15.564 120.688,14.236 121.353,13.173C121.796,12.908 122.24,13.705 122.904,13.439L120.91,11.845C120.023,13.173 118.915,11.845 118.028,11.048C118.028,11.579 117.364,11.845 117.364,12.376C116.034,12.111 115.591,13.705 114.704,14.236C114.926,15.298 115.147,16.892 115.812,17.689C116.255,17.955 116.477,17.158 116.92,17.158C116.699,17.955 116.255,18.486 115.369,18.752C115.248,18.895 115.171,19.081 115.147,19.283C115.369,19.549 115.812,19.549 116.034,19.814C116.255,19.814 116.477,20.08 116.255,20.346C115.812,20.877 115.147,20.877 114.704,21.142C114.482,21.408 114.482,22.205 115.147,22.736L114.704,23.268C114.482,23.533 114.926,24.065 114.926,24.33C114.926,25.393 114.261,26.721 115.369,27.784C114.926,28.049 114.261,28.58 114.926,29.909C115.147,29.909 115.591,29.909 115.591,30.174C115.591,30.706 114.261,29.643 115.369,31.768C115.201,31.796 115.045,31.889 114.926,32.034C114.704,34.159 115.369,36.284 114.704,38.409C114.704,38.675 114.926,38.941 114.926,39.206C114.806,39.35 114.65,39.444 114.482,39.472C114.704,40.003 115.369,40.534 115.147,40.8C115.147,41.597 114.926,42.128 115.147,43.456C115.369,43.722 114.482,44.253 114.704,44.519C114.926,45.582 114.926,46.644 114.926,47.972C114.926,48.238 115.147,48.504 115.147,48.769C114.926,48.769 114.482,48.769 114.261,49.035C114.926,49.566 115.369,50.629 115.147,51.426C115.147,52.223 115.369,52.754 115.591,53.551C115.369,53.551 114.926,53.285 114.704,53.285C114.704,53.816 115.369,54.348 114.482,55.145C114.926,55.41 115.369,55.676 115.369,55.942C114.926,57.004 114.926,58.332 116.034,58.598C115.591,58.864 114.926,59.129 114.926,59.661C114.704,60.458 115.147,61.52 115.369,62.317C115.147,62.317 114.704,61.786 114.482,62.051C114.261,62.317 114.704,62.848 114.704,63.114C114.482,65.505 114.926,67.364 115.147,69.489C114.907,69.488 114.674,69.582 114.482,69.755C114.482,70.021 115.591,69.489 114.482,71.083C114.482,71.349 114.926,71.88 114.926,72.146C114.926,72.411 114.482,72.677 114.482,72.677C114.926,74.005 114.926,75.599 115.147,77.193C115.147,77.724 114.926,78.256 114.482,78.787C114.748,78.983 114.968,79.256 115.123,79.581C115.278,79.906 115.363,80.272 115.369,80.646C114.926,80.646 114.261,80.646 114.482,81.178C114.704,82.76 114.704,84.376 114.482,85.959C114.482,86.49 114.704,87.022 114.704,87.553C114.704,87.819 114.482,87.819 114.482,88.084C114.704,88.616 115.147,89.412 114.926,89.944C114.039,91.538 114.482,93.928 115.369,95.522C115.147,95.788 114.704,95.788 114.704,96.054C114.704,97.116 114.482,97.913 114.482,98.71C114.482,99.772 115.147,101.101 115.812,102.163C114.926,102.695 114.704,103.757 114.704,104.82C114.704,105.085 115.147,105.351 115.369,105.351C115.147,105.617 114.482,105.617 114.482,105.882C114.672,107.415 114.969,108.925 115.369,110.398C115.369,110.929 114.926,111.195 114.926,111.726C114.926,112.258 115.369,112.789 115.369,113.055C114.039,114.648 115.147,116.508 115.147,118.367C115.147,118.899 114.704,119.43 114.704,119.961C114.727,120.163 114.805,120.349 114.926,120.493C114.704,120.758 114.261,121.29 114.261,121.555C114.704,122.086 115.147,122.883 114.704,123.946L115.147,124.477C114.482,125.009 114.039,123.68 113.153,124.743C112.044,124.212 111.158,124.212 110.05,124.477C109.606,124.477 109.385,124.212 108.72,124.477C108.498,124.477 108.498,123.946 108.277,123.946C106.504,123.946 104.509,124.212 102.736,123.68C102.736,123.946 102.514,124.477 102.514,124.743C102.293,124.477 102.071,123.946 101.849,123.946C101.184,124.212 100.741,123.946 100.076,123.68C99.633,123.415 99.19,123.946 98.968,123.946C97.417,123.415 96.087,123.946 94.535,123.946C94.314,123.946 93.649,123.946 93.649,122.618C93.529,122.473 93.374,122.38 93.206,122.352C92.762,122.618 92.984,123.149 92.984,123.68C92.74,123.96 92.431,124.145 92.097,124.212C91.433,124.212 90.989,123.415 90.546,122.883C89.881,123.946 88.995,122.883 88.108,122.883C88.104,122.998 88.093,123.112 88.073,123.223C87.967,122.994 87.829,122.789 87.665,122.618C87.665,122.883 87.463,123.128 88.033,123.383C88.003,123.494 87.953,123.595 87.886,123.68C87.443,123.946 87.222,123.149 87,123.149C85.61,123.457 84.202,123.635 82.789,123.68C82.124,123.415 81.681,123.415 81.016,122.883C80.794,122.883 81.016,122.086 80.573,121.555C80.129,122.352 80.351,123.68 79.464,123.415C78.799,123.415 78.135,122.883 77.47,123.149C77.295,123.391 77.146,123.659 77.026,123.946C76.14,123.68 75.697,122.618 75.253,121.555C75.134,121.411 74.978,121.317 74.81,121.29C74.588,121.821 75.253,122.352 75.032,122.883C74.588,123.149 74.145,122.086 73.702,123.415C72.372,123.415 71.264,123.149 69.934,122.883C69.491,122.883 69.713,123.946 69.269,123.68C69.048,123.149 69.491,122.086 69.934,121.555C68.826,121.555 68.604,122.352 68.383,123.415C68.161,123.149 67.718,122.883 67.496,122.618C67.275,122.883 67.275,123.415 67.053,123.68C66.61,123.149 66.166,122.618 65.501,122.352C65.28,122.883 65.058,123.68 64.393,123.415C64.172,123.149 63.728,122.618 63.063,122.883L63.063,121.29C62.62,121.29 61.955,121.29 61.734,122.086C61.734,122.352 61.955,122.352 61.955,122.618C61.512,122.618 61.069,123.149 60.626,123.68C60.587,123.402 60.512,123.133 60.404,122.883C58.959,123.229 57.268,123.659 57.079,121.39C56.858,122.187 56.414,122.719 56.193,123.516L55.306,122.453C55.085,122.984 54.863,123.25 54.198,122.984L53.977,122.453C53.09,122.453 51.76,123.516 50.874,121.39C50.652,121.125 49.987,120.859 49.766,121.125C49.471,121.829 49.296,122.626 48.952,123.085C48.899,122.875 48.748,122.711 48.316,122.883C48.271,122.881 48.226,122.895 48.187,122.922C48.147,122.949 48.115,122.989 48.094,123.037C47.975,122.551 47.859,121.845 47.542,121.656C47.461,121.873 47.398,122.099 47.354,122.331C46.793,122.171 47.192,123.16 46.98,123.415C46.536,123.68 46.093,123.946 45.65,123.946C43.877,123.68 42.104,122.883 40.331,123.415C39.887,123.415 39.666,124.212 39.001,123.946C38.558,123.68 38.558,122.883 38.558,122.086C38.114,122.352 37.671,122.618 37.671,123.68C36.784,123.415 35.898,124.477 35.011,123.68C34.79,123.149 35.011,122.352 35.233,121.821C34.79,122.086 34.568,122.352 34.125,122.618C34.347,122.883 34.347,123.149 34.568,123.415C32.795,123.149 31.022,123.946 29.249,123.149C28.584,122.883 28.584,124.212 28.362,123.946C27.844,123.962 27.33,123.826 26.866,123.548C26.402,123.27 26.003,122.859 25.703,122.352C25.481,122.352 25.038,122.883 25.26,123.68C24.611,123.461 23.937,123.371 23.265,123.415C22.822,123.149 23.265,122.086 22.822,122.086C22.378,122.352 21.935,123.415 21.713,123.149C20.384,122.883 19.497,123.68 18.167,123.68C17.281,123.68 17.281,122.352 16.838,122.352C15.951,122.086 15.286,123.415 14.621,124.212C14.621,124.477 15.064,125.274 14.4,125.009C13.956,124.743 14.4,123.946 14.178,123.68C13.513,123.149 13.956,122.618 13.513,122.086C13.07,122.883 12.848,123.68 12.183,124.477C11.961,124.477 11.74,123.946 11.518,123.68C10.853,123.149 9.967,123.415 9.08,123.946C9.08,122.883 9.967,122.883 10.41,122.618C9.967,122.086 9.302,121.821 9.08,121.29C9.08,119.696 8.415,118.102 9.08,116.774C9.08,116.242 9.302,115.711 9.302,115.18C9.08,114.914 8.637,114.648 8.415,114.383C9.302,113.32 9.524,111.195 8.859,109.867L9.08,109.601C9.745,109.336 10.189,109.867 10.632,110.133C10.647,109.988 10.635,109.842 10.596,109.704C10.558,109.566 10.494,109.44 10.41,109.336C9.745,108.804 8.859,110.133 8.637,108.273C8.637,108.007 9.524,108.007 8.415,106.414C9.524,105.085 8.637,103.757 8.637,102.163C8.637,101.898 9.524,102.429 8.637,100.835C8.859,100.569 9.302,100.835 9.524,101.366C9.745,101.101 10.41,100.835 9.745,100.038C9.524,99.772 9.08,100.038 8.859,99.772C8.637,98.71 9.302,97.913 8.859,96.85C9.302,96.85 9.745,96.585 10.189,96.054L10.189,95.522C9.745,95.257 8.859,96.054 8.859,95.788C8.415,95.257 9.08,94.194 9.08,93.397C8.859,91.538 9.08,89.944 9.08,88.084C9.302,87.287 9.745,88.35 10.189,88.084C10.41,87.819 10.189,87.287 9.967,87.287C9.524,87.287 9.08,87.819 8.637,87.287C8.415,86.756 8.859,86.49 9.08,85.959C9.08,85.428 8.415,85.162 7.972,85.162C8.415,84.365 7.972,83.303 8.415,82.506L9.302,82.506C9.524,81.975 9.967,81.178 8.415,80.646C8.859,80.115 8.415,79.584 8.415,79.052C8.194,78.521 8.859,77.724 8.637,77.193L7.972,76.396C8.246,76.093 8.471,75.733 8.637,75.333C8.859,74.537 8.194,74.271 8.637,73.474C8.415,73.208 7.972,73.208 7.751,72.943C8.009,72.805 8.229,72.582 8.386,72.3C8.543,72.017 8.63,71.688 8.637,71.349C8.859,71.349 8.859,71.614 9.08,71.614C9.524,71.349 9.967,70.552 9.745,70.021C9.524,69.755 8.859,70.021 8.415,70.286C8.637,69.755 8.415,69.224 7.972,68.427C7.751,67.896 8.415,67.364 8.859,67.099C8.637,66.302 8.194,65.77 7.751,65.239C7.972,64.973 8.415,64.973 8.637,64.708C8.415,64.442 8.194,63.911 7.972,63.645C8.368,63.562 8.746,63.381 9.08,63.114C9.357,62.848 9.524,62.45 9.524,61.786C9.08,62.317 8.194,62.848 7.751,62.583C7.529,62.051 8.415,62.051 8.415,61.786C8.194,60.192 8.194,58.598 7.751,57.27C8.194,57.27 8.194,57.535 8.637,55.676C8.637,55.41 9.08,56.207 9.745,55.676C8.859,55.145 8.194,54.082 7.529,53.285C8.415,53.02 8.194,51.957 8.194,51.16C8.194,50.894 7.529,50.629 7.529,50.363C7.529,49.035 8.859,49.566 9.524,49.035C7.529,48.769 7.529,45.847 7.972,43.988C7.972,43.456 8.194,43.191 7.751,42.66C7.529,42.128 7.972,41.862 7.972,41.331C7.972,41.066 7.307,40.8 7.529,40.269C7.751,40.003 7.972,40.003 8.194,39.737C8.415,38.941 7.751,37.878 8.194,37.081C7.529,36.284 6.864,34.956 7.529,33.893C7.751,33.893 8.637,34.69 8.637,33.628C8.637,33.096 7.972,33.362 7.529,32.831C7.307,32.299 7.086,31.768 7.307,31.237C7.972,29.909 7.972,28.315 7.307,26.721C7.751,25.658 7.086,24.33 7.307,23.268C7.307,23.002 6.864,22.736 6.642,22.471C6.864,22.471 7.307,22.205 7.529,22.205C7.086,21.408 7.307,20.611 7.529,19.549C7.529,19.283 7.086,19.283 7.086,19.017C7.27,17.791 7.344,16.544 7.307,15.298L6.864,15.033C6.864,14.767 7.086,14.501 7.086,14.236C6.642,13.173 7.307,12.376 7.086,11.314C6.864,10.782 6.642,10.251 6.642,9.985C7.529,8.923 6.421,7.595 6.864,6.266C7.086,6.532 7.307,7.063 7.529,7.063C8.194,7.063 7.751,6.001 7.972,5.47L8.415,5.47C8.637,6.001 8.637,6.798 8.637,7.595C8.859,7.595 9.08,7.329 9.302,7.329C9.255,7.514 9.25,7.71 9.289,7.898C9.328,8.085 9.408,8.257 9.522,8.393C9.636,8.53 9.779,8.626 9.936,8.673C10.092,8.72 10.256,8.714 10.41,8.657C10.632,8.392 10.853,7.595 11.297,7.329C11.518,7.595 11.518,8.126 11.74,8.392C12.043,7.899 12.225,7.314 12.264,6.703C12.303,6.092 12.198,5.481 11.961,4.938C13.07,5.204 12.405,6.798 12.626,7.595C12.626,8.392 13.513,7.329 13.956,7.595C14.4,8.126 14.843,7.595 15.064,8.392C15.286,8.392 15.286,8.126 15.508,8.126C15.508,8.657 15.729,8.657 15.951,8.657C16.173,7.595 16.838,8.657 17.281,8.392C17.502,7.86 17.059,7.063 17.281,6.532C17.724,6.001 17.946,7.063 18.389,7.063C18.832,7.595 19.054,8.923 19.719,8.392C19.94,8.126 19.719,7.329 19.719,6.798C19.719,6.532 20.162,6.532 20.162,6.532C20.384,7.063 20.162,7.86 20.162,8.392C20.281,8.536 20.437,8.629 20.605,8.657C20.827,8.657 21.27,8.392 21.492,8.392C22.378,8.923 23.265,8.657 24.151,8.657C24.816,8.657 25.038,7.595 25.26,7.063C25.703,7.595 25.924,8.392 26.368,8.657C27.919,8.657 29.692,8.657 31.244,8.923C31.465,9.189 31.465,9.72 31.465,9.985C32.13,8.392 33.682,7.329 34.79,8.923C35.368,8.301 35.233,9.189 35.233,9.985C36.12,9.985 36.563,9.454 37.228,8.657C37.315,8.556 37.42,8.48 37.535,8.434C37.65,8.388 37.772,8.374 37.893,8.392C39.001,8.923 40.109,8.923 40.996,7.86C40.996,8.126 40.996,8.657 41.217,8.657C42.325,9.189 43.655,9.189 44.985,8.657L44.985,7.86C45.207,7.595 45.428,7.86 45.428,8.126L45.428,10.251C45.65,9.72 45.871,9.189 46.315,8.923C46.536,9.454 46.758,9.985 47.201,9.985C47.866,9.72 47.645,10.782 48.088,10.517C48.56,10.14 48.25,9.76 48.11,9.287C48.155,9.124 48.191,8.958 48.219,8.79C48.394,8.949 48.59,9.071 48.799,9.151C49.021,9.417 49.313,9.021 49.757,9.287C49.978,9.287 50.2,10.349 50.643,10.615C50.865,10.615 50.865,10.084 50.422,9.287L50.643,9.021C51.308,9.552 51.973,9.021 52.416,9.021C53.081,9.287 52.416,10.615 52.638,10.615C53.303,10.881 53.746,9.552 53.303,8.756C53.524,8.756 53.524,8.49 53.746,8.49C53.746,9.021 53.746,9.552 54.633,9.552C54.854,9.287 54.633,8.756 55.076,8.49C55.244,8.518 55.4,8.611 55.519,8.756C55.511,9.248 55.353,9.72 55.076,10.084C54.854,10.349 54.411,10.084 54.633,10.881C54.854,10.881 55.298,10.881 55.519,9.818C55.639,9.674 55.794,9.58 55.962,9.552C56.184,10.349 56.627,11.412 57.514,10.881L57.735,10.615C57.534,10.615 57.334,10.615 57.292,10.211C57.306,10.032 57.355,9.858 57.436,9.706C57.517,9.554 57.627,9.427 57.758,9.337C57.888,9.246 58.034,9.195 58.185,9.186C58.335,9.177 58.485,9.212 58.622,9.287C58.844,9.552 59.065,10.349 59.287,10.349C59.952,10.349 58.844,8.756 60.395,9.021C60.173,9.552 59.952,10.084 59.952,10.615C60.082,10.302 60.271,10.029 60.504,9.818C60.603,9.967 60.575,10.052 60.617,10.259C61.06,9.993 61.503,9.197 61.725,9.462C62.39,9.462 63.055,8.931 63.719,9.197C63.941,9.462 63.941,9.993 64.163,9.993C64.606,9.993 65.049,9.197 65.493,9.462C65.936,9.462 66.158,9.993 66.601,10.525C66.379,8.931 67.931,9.197 68.595,9.728L68.595,10.79C69.26,9.462 70.369,9.462 71.477,9.197L71.477,10.259C72.363,9.462 73.915,8.665 74.801,10.259C75.066,9.947 75.364,9.679 75.688,9.462C76.131,9.197 76.574,9.462 77.018,9.462C76.796,9.728 76.574,10.259 77.018,10.259C77.239,10.525 77.461,9.728 77.461,9.197C77.801,9.411 78.186,9.504 78.569,9.462C78.235,9.661 77.935,9.931 77.682,10.259C78.255,10.478 78.856,10.568 79.456,10.525C79.234,9.993 79.234,9.462 80.342,9.197C80.564,9.197 80.564,9.993 80.564,10.259C81.229,9.728 81.893,8.931 82.78,8.931C83.445,8.931 83.223,10.259 83.667,10.525C84,10.459 84.309,10.273 84.553,9.993C84.331,9.728 83.888,9.728 83.667,9.462C83.888,9.197 84.11,8.4 84.553,8.665L84.775,9.197C85.218,9.197 85.661,9.197 85.883,9.462C85.883,9.728 86.105,10.259 86.991,9.993C86.769,9.728 86.769,9.462 86.548,9.197C87.434,8.665 88.764,8.134 89.651,9.197C89.429,8.4 89.872,7.603 90.316,7.071L90.759,7.071C91.424,8.134 91.867,9.197 92.753,8.4C92.753,8.134 92.089,7.603 92.089,7.603C91.202,6.009 91.424,4.149 91.867,2.29C91.202,2.555 91.202,3.618 90.316,3.618C90.759,4.946 89.651,5.478 89.429,6.54L88.986,6.54L88.986,6.009C89.207,5.743 89.651,5.212 89.651,4.946C88.986,3.618 89.207,2.29 88.764,1.227C88.099,1.759 88.542,2.821 88.099,3.618C87.656,3.087 87.434,2.821 86.769,2.821C86.326,2.821 86.105,2.29 85.883,2.024C85.44,2.024 85.883,2.821 85.44,3.087C85.44,0.962 83.667,1.493 82.337,0.962C81.007,1.759 79.456,1.227 78.126,1.227C78.126,1.759 77.682,2.024 77.904,2.555L77.461,2.555C77.381,2.24 77.244,1.949 77.059,1.704C76.874,1.459 76.647,1.266 76.393,1.139C76.138,1.012 75.864,0.954 75.589,0.969C75.313,0.985 75.045,1.073 74.801,1.227C73.693,1.759 72.585,1.493 71.477,1.493C69.704,1.759 67.931,1.227 66.158,0.696C65.936,0.696 65.714,0.962 65.493,1.493C64.606,0.962 63.719,1.493 62.833,1.493C62.39,1.227 61.946,0.962 61.503,1.227C61.331,1.456 61.094,1.598 60.838,1.626C60.586,1.626 60.411,1.19 60.173,1.328C59.952,1.063 59.952,0.531 59.73,0.266C59.509,0.531 59.509,1.063 59.287,1.328C59.065,1.328 58.844,1.063 58.622,1.063C57.735,1.594 57.071,1.063 56.184,1.063L55.962,1.328C55.741,0.797 55.741,0.531 55.519,0C55.076,0.797 54.633,0.266 53.968,0.266L53.746,0.531C53.746,1.063 53.968,1.328 54.189,1.859L53.746,1.859C53.303,1.594 53.303,0.266 51.973,1.063C51.751,1.328 51.751,2.125 51.53,2.391C51.431,2.342 51.324,2.321 51.217,2.33L51.086,2.391C51.086,2.125 51.308,1.328 50.865,1.328C50.218,1.328 49.923,1.743 49.637,2.229L49.637,1.068C48.77,0.932 47.935,0.877 47.199,1.759C46.977,1.493 46.756,0.962 46.312,1.227C45.869,1.493 45.869,2.024 45.869,2.555C45.426,2.29 45.426,1.759 45.204,1.227C43.875,0.165 42.545,1.227 40.993,0.962C40.55,0.696 39.664,0.43 39.442,1.493C37.447,0.43 35.231,0.962 33.236,0.962C32.793,0.962 32.128,0.43 31.685,1.759C31.385,1.363 30.984,1.098 30.546,1.004L30.577,0.962L30.133,0.962C29.468,0.962 28.582,0.962 27.917,0.696C26.587,0.696 27.252,1.493 27.252,2.29C26.833,2.073 26.377,1.982 25.922,2.024C26.144,1.493 26.144,0.962 26.366,0.43C25.996,0.807 25.52,0.998 25.036,0.962C24.592,0.962 24.371,1.493 24.149,2.024C23.706,1.759 23.927,0.696 23.484,0.696C23.041,0.696 22.819,1.493 22.819,2.024C23.041,2.29 22.376,2.821 23.927,2.821C24.149,2.555 24.371,3.352 24.371,3.884C24.592,2.821 25.257,3.087 25.922,3.352C25.479,3.618 24.592,3.618 24.814,4.946C24.149,5.212 23.927,3.618 22.819,5.212C23.263,3.618 22.154,2.024 21.268,0.962C21.272,1.235 21.212,1.505 21.094,1.74C20.977,1.975 20.807,2.165 20.603,2.29L20.603,1.227C19.273,0.696 17.722,0.43 16.392,0.962C16.17,0.962 15.949,0.696 15.727,0.696L15.062,1.493C14.841,1.227 14.841,0.962 14.619,0.962C13.954,0.962 13.289,1.227 12.624,0.43C12.403,0.43 11.959,0.962 11.738,0.962C11.516,0.962 11.073,0.696 10.851,0.696C9.743,1.227 8.635,0.696 7.527,0.696C7.083,2.024 8.413,3.352 6.862,4.415C7.083,4.681 7.527,4.946 7.527,5.212C7.527,5.743 6.862,5.478 6.64,5.478C5.975,4.946 6.197,3.618 5.754,2.821C5.31,1.493 3.759,2.024 2.651,1.493C1.986,1.227 1.764,0.696 1.099,0.696C1.321,1.227 1.321,1.759 1.543,2.29L1.986,2.29C2.429,3.087 2.872,3.884 3.537,4.415C2.651,4.415 2.207,5.478 1.543,5.743C1.16,5.785 0.775,5.692 0.434,5.478C0.411,5.679 0.333,5.866 0.213,6.009C0.434,7.071 0.434,8.134 0.656,9.197C0.878,10.259 1.764,9.197 2.207,9.993C1.543,10.525 0.434,9.993 0.213,11.322C0.213,11.853 0.434,12.384 0.878,12.916L0.213,13.712C0.434,13.978 0.656,13.978 0.878,14.244L0.213,15.041L1.099,15.041C0.878,15.306 0.434,15.572 0.434,15.838C0.878,16.9 0.213,17.697 0.213,18.76C0.434,19.291 0.878,19.291 1.099,19.822C1.321,20.354 0.213,20.885 0.434,21.416C0.772,21.74 1.145,22.008 1.543,22.213C1.321,22.479 0.656,23.01 0.656,23.276C0.878,24.604 0.878,25.932 1.099,27.26C1.099,27.526 0.878,27.792 1.099,28.323C1.099,29.12 0.434,29.917 0.656,30.714C0.775,30.858 0.931,30.951 1.099,30.979C0.878,31.245 0.656,31.245 0.434,31.511C0.656,31.776 0.878,32.042 0.878,32.307C0.878,32.573 0.656,32.839 0.656,33.104C0.743,33.205 0.848,33.281 0.963,33.327C1.078,33.373 1.201,33.388 1.321,33.37C1.099,33.636 0.656,33.901 0.656,34.433C0.879,35.116 0.879,35.874 0.656,36.558C0.619,38.598 0.693,40.639 0.878,42.667C1.099,43.199 1.543,43.199 0.878,44.527C0.656,45.324 1.321,45.855 1.321,46.652C1.321,46.918 0.878,47.183 0.878,47.449C0.656,50.371 1.099,53.559 0.878,56.481C1.543,57.543 1.986,58.872 1.099,60.2L1.764,60.2C1.764,60.466 1.543,60.466 1.543,60.731C1.543,60.997 1.986,61.528 1.764,61.794C1.099,62.059 1.543,63.122 1.099,63.653C1.543,63.919 1.543,64.184 1.321,65.513C1.099,66.044 1.764,66.841 1.764,67.372C1.543,70.294 0.878,73.748 1.986,76.404C1.099,77.201 1.543,78.263 1.543,79.326C1.321,80.123 1.986,80.92 1.764,81.717L1.764,84.639L2.429,86.233C1.986,86.498 1.543,86.764 1.543,87.03C1.764,87.545 1.764,88.063 1.56,88.82C0.698,88.616 -0.148,88.517 2.429,90.749C2.261,90.777 2.105,90.87 1.986,91.014C1.764,91.546 2.207,92.077 2.207,92.343C1.986,92.874 1.543,93.139 1.764,93.936C1.851,94.037 1.957,94.114 2.072,94.159C2.187,94.205 2.309,94.22 2.429,94.202C2.207,94.733 1.764,94.999 1.764,95.53C1.764,96.593 2.872,96.062 3.537,96.593C3.094,97.124 2.429,96.858 1.986,97.39C1.876,97.466 1.795,97.589 1.758,97.734C1.722,97.879 1.733,98.036 1.79,98.171C1.846,98.307 1.944,98.412 2.063,98.464C2.182,98.516 2.313,98.512 2.429,98.452C2.207,98.718 1.986,98.984 1.986,99.249C1.851,99.895 2.125,100.147 2.411,100.426C2.358,100.583 2.207,100.623 2.207,100.843L2.429,100.843L2.429,100.445C2.629,100.608 2.784,100.839 2.872,101.109L2.429,101.109C2.207,101.64 2.429,102.171 2.207,102.968C1.764,103.765 2.207,105.093 2.651,106.156C2.651,106.422 0.213,103.499 2.429,108.281C2.429,108.281 1.986,108.547 1.986,108.812C1.764,109.344 2.207,109.609 2.429,110.141C2.429,110.406 1.986,110.672 1.986,110.937C1.764,112 2.429,112.797 1.986,114.125C1.986,114.391 3.094,114.656 2.872,115.188C2.651,115.453 1.764,115.188 1.764,115.985C1.764,116.25 2.429,116.516 2.651,117.047C2.872,117.579 2.207,117.844 1.986,118.375C1.986,118.907 2.651,119.438 2.651,119.969C2.872,120.501 2.429,121.298 1.764,121.563C1.986,121.829 2.429,121.829 2.651,122.094C2.651,122.36 2.207,122.891 1.986,123.157C1.986,123.423 1.764,123.688 2.207,123.688L1.986,123.954C2.073,124.055 2.178,124.131 2.293,124.177C2.408,124.223 2.53,124.237 2.651,124.22C2.73,124.302 2.794,124.404 2.838,124.518C2.882,124.633 2.905,124.758 2.905,124.884C2.905,125.01 2.882,125.134 2.838,125.249C2.794,125.364 2.73,125.465 2.651,125.548C4.202,126.079 2.651,128.204 3.537,129.532L3.759,129.267C4.202,129.532 4.202,130.064 4.645,130.329C4.867,130.329 4.645,128.47 5.754,131.126C5.754,130.861 5.754,130.329 5.975,130.329C6.64,130.329 7.083,130.861 7.748,130.329C8.413,132.72 10.186,131.392 11.516,130.595C11.283,130.302 11.128,129.932 11.073,129.532C11.073,129.001 11.294,129.267 11.516,129.267C12.181,129.798 11.959,131.392 12.846,131.392C13.289,131.126 12.846,130.064 13.289,129.798C13.511,129.798 13.511,130.064 13.732,130.064C14.176,130.595 14.176,131.126 14.397,131.658C14.619,131.923 15.062,132.72 15.727,131.126C15.949,131.392 16.17,131.923 16.614,131.923C16.835,131.923 16.835,131.392 17.057,131.392C17.943,131.392 19.052,131.658 19.938,131.126C20.272,131.192 20.58,131.378 20.825,131.658C21.49,131.923 21.711,131.392 21.933,130.861C22.154,131.126 22.154,131.923 23.263,130.861C23.286,131.062 23.364,131.249 23.484,131.392C24.371,131.923 25.479,131.126 26.366,131.392C27.252,131.392 28.139,131.126 29.025,131.658C29.247,131.658 29.247,131.392 29.468,131.392C29.589,131.535 29.667,131.722 29.69,131.923C30.133,131.658 30.577,131.126 31.02,130.861C31.241,130.861 31.685,131.392 31.906,131.392C32.571,131.126 33.015,131.126 33.901,131.658C34.344,131.923 35.231,130.861 35.674,131.392C36.561,132.189 36.782,131.126 37.669,131.126C37.669,131.392 37.669,131.923 37.89,132.189C38.112,131.923 38.334,131.392 38.555,131.392C38.999,131.392 39.442,131.392 39.885,130.861C40.005,131.005 40.16,131.098 40.328,131.126C40.993,131.392 41.215,130.595 41.658,130.595C41.437,130.861 41.437,131.392 41.437,131.658C42.101,131.126 42.545,131.658 42.988,131.923C42.998,131.716 43.071,131.52 43.194,131.373C43.316,131.226 43.48,131.138 43.653,131.126C44.761,131.392 45.648,131.392 45.648,130.064C45.869,130.595 46.312,131.392 46.756,131.658C47.421,131.658 48.307,131.126 48.972,130.861L48.972,130.885C48.943,131.15 48.54,131.663 48.75,131.918C48.961,132.173 49.415,131.652 49.637,131.652L49.637,131.286C51.188,131.469 52.6,131.395 54.189,130.683C54.633,130.683 54.854,130.948 55.298,130.948C57.071,130.683 58.622,131.357 60.395,131.357C60.586,131.387 60.781,131.408 60.978,131.418C61.08,131.428 61.182,131.428 61.284,131.418C61.506,131.421 61.728,131.404 61.949,131.368C62.17,131.368 62.614,131.634 62.835,131.634C64.165,131.102 65.495,130.571 66.825,131.899C67.046,131.899 67.49,131.102 67.711,131.102C68.376,131.634 69.484,131.368 69.927,130.837C70.371,130.571 70.814,131.368 71.257,131.102L71.257,131.634C72.365,130.837 73.474,130.837 74.36,131.899C76.798,131.368 79.458,131.899 81.896,131.899C82.117,131.899 82.339,131.368 82.561,131.368C83.447,131.634 84.112,131.899 84.999,131.368C86.328,132.165 87.658,131.899 88.988,132.165C89.21,132.165 89.653,131.634 89.874,131.634C90.318,131.634 90.539,132.165 90.983,132.165C91.426,131.899 91.869,131.899 92.534,132.165C92.977,132.165 93.199,131.634 93.421,131.368C93.642,131.634 93.642,131.899 93.864,132.165C94.085,131.899 94.307,131.634 94.529,131.634C94.75,131.634 94.75,131.899 94.972,132.165C95.194,131.899 95.194,131.634 95.415,131.368C95.637,131.634 95.637,131.899 95.859,132.165C96.523,132.431 97.188,131.368 97.632,131.634C98.075,131.634 98.518,131.102 99.183,131.368L98.961,131.634C99.183,131.634 99.183,131.899 99.405,131.899C100.291,131.899 100.734,131.368 101.843,131.899C102.064,132.165 102.507,131.368 102.729,131.102C103.172,131.102 103.172,132.165 103.616,132.431C104.281,130.837 104.724,131.899 105.61,132.165C106.054,132.431 106.719,131.899 107.162,131.899C107.383,131.899 107.827,132.431 108.048,132.431C108.27,132.165 108.27,131.634 108.492,131.368C108.492,131.634 108.713,132.165 108.713,132.431L109.378,131.634C109.378,131.899 109.6,132.165 109.6,132.431C109.821,132.165 110.043,131.634 110.265,131.634C110.486,131.634 110.708,132.165 110.93,132.431C112.038,132.962 112.703,131.634 112.481,130.305C112.6,130.161 112.756,130.068 112.924,130.04C113.146,130.837 112.924,131.899 114.032,132.165C114.697,132.165 115.362,131.899 116.027,132.431C116.027,131.899 116.47,132.696 116.47,131.634C116.59,131.489 116.746,131.396 116.914,131.368C116.692,131.634 116.692,131.899 116.47,132.165C116.914,132.431 117.579,132.962 118.243,131.634C118.243,131.368 117.8,131.102 117.579,130.837C118.022,130.837 118.243,130.04 118.908,131.102C118.465,131.634 118.908,132.165 118.687,132.696L119.13,132.696C119.795,131.102 121.346,132.165 122.233,131.368C122.676,130.571 122.898,129.508 123.119,128.712C123.119,128.446 122.898,127.915 122.898,127.649C122.898,127.915 122.676,128.18 122.676,128.446C122.454,128.18 122.011,127.915 121.79,127.649C121.79,127.383 122.011,127.383 122.011,127.118C121.838,127.106 121.675,127.018 121.552,126.871C121.43,126.724 121.356,126.528 121.346,126.321C121.355,125.828 121.512,125.356 121.79,124.993C122.011,124.727 122.676,124.993 122.454,124.461C122.335,124.317 122.179,124.224 122.011,124.196C121.568,123.664 121.79,122.867 121.79,122.336C121.79,121.008 122.676,123.399 122.676,121.274C122.011,121.008 121.79,119.945 121.125,119.414C121.346,119.148 121.568,119.148 121.568,118.883C121.346,118.617 120.903,118.352 120.903,118.086C121.125,117.555 121.568,117.023 121.568,116.492C120.903,114.898 121.346,112.773 122.898,112.507C121.597,112.507 121.346,110.98 121.555,109.67C122.025,109.373 122.707,109.474 122.898,108.788C122.898,107.46 121.346,106.663 122.233,105.069C121.346,104.538 121.346,102.944 122.233,102.147C121.79,100.819 120.46,98.428 122.454,97.366C123.341,97.1 121.79,96.569 121.79,95.772C121.79,95.506 122.233,95.506 122.454,95.241L122.233,94.709C121.79,94.444 121.346,95.241 121.125,94.975C120.903,94.444 121.79,94.178 121.79,93.647C121.79,93.116 121.346,92.319 121.346,91.787C121.346,90.459 122.454,90.459 123.119,89.662L122.898,89.131C122.454,89.131 121.568,90.194 121.568,89.131C121.346,88.865 122.011,88.334 121.79,87.537C122.011,87.803 122.676,87.537 122.676,87.006C122.676,86.475 121.346,86.74 122.011,85.146C122.24,85.162 122.24,85.428 122.461,85.428ZM71.264,123.149C71.437,123.137 71.6,123.049 71.723,122.902C71.846,122.755 71.919,122.56 71.929,122.352C71.707,122.086 71.264,122.086 71.042,122.086C71.042,122.352 71.042,122.883 71.264,123.149ZM76.14,122.618C76.362,122.883 76.583,123.68 77.248,123.149C77.47,122.883 77.248,122.352 77.026,121.821C76.805,122.086 76.362,122.352 76.14,122.618ZM105.839,123.68C105.839,123.415 106.06,123.149 106.06,122.883L105.839,122.618C105.724,122.627 105.615,122.686 105.534,122.784C105.452,122.881 105.403,123.011 105.395,123.149C105.395,123.415 105.617,123.415 105.839,123.68ZM111.601,123.946C111.769,123.918 111.925,123.825 112.044,123.68C111.823,122.883 110.936,123.149 110.493,123.68L111.379,123.68L111.601,123.946ZM72.815,123.149C72.919,122.905 73.078,122.701 73.274,122.56C73.47,122.419 73.695,122.347 73.924,122.352C73.702,122.352 73.702,122.086 73.48,122.086C73.259,122.352 72.815,122.086 72.815,123.149ZM68.383,122.883C68.398,122.739 68.385,122.593 68.347,122.455C68.309,122.317 68.245,122.191 68.161,122.086L67.275,122.086C67.718,122.352 67.939,122.618 68.383,122.883ZM91.211,122.618C91.211,122.883 91.433,123.149 91.654,123.415C91.654,123.149 91.876,122.618 91.433,122.352L91.211,122.618ZM78.356,122.883C78.356,122.618 78.578,122.352 78.578,122.086L78.135,122.086L78.135,122.618L78.356,122.883ZM120.466,132.978C120.688,132.978 120.688,132.712 120.91,132.712L120.688,132.447C120.245,132.447 120.466,132.712 120.466,132.978ZM96.752,123.415C96.752,123.149 96.973,123.149 96.973,122.883C96.752,122.883 96.53,122.883 96.53,123.149L96.752,123.415ZM118.915,10.782C118.693,10.517 118.472,9.985 118.028,9.985C117.807,9.985 117.585,10.517 117.364,10.517C116.699,10.517 115.812,10.251 115.147,11.048C116.034,11.845 117.142,12.111 118.028,11.048C118.25,10.517 118.693,10.782 118.915,10.782ZM122.461,119.696C122.629,119.668 122.785,119.574 122.904,119.43C122.904,118.899 123.348,118.102 122.018,117.836C122.127,118.081 122.184,118.355 122.184,118.633C122.184,118.911 122.127,119.185 122.018,119.43C122.24,119.43 122.24,119.696 122.461,119.696ZM122.018,98.976C122.018,99.507 122.018,99.772 122.683,100.038L122.904,99.772C122.904,99.507 122.683,99.507 122.683,99.241C122.595,99.14 122.49,99.064 122.375,99.018C122.26,98.972 122.138,98.958 122.018,98.976ZM120.466,7.063C120.361,6.901 120.227,6.77 120.073,6.678C119.92,6.586 119.751,6.536 119.58,6.532L119.358,6.798C119.602,7.078 119.911,7.263 120.245,7.329L120.466,7.063ZM115.812,12.376C115.369,12.111 115.147,12.111 114.704,11.845C114.704,12.111 114.704,12.376 114.926,12.376L115.812,12.376ZM121.575,7.063C121.553,6.985 121.512,6.916 121.457,6.865C121.402,6.814 121.336,6.784 121.267,6.778C121.198,6.772 121.129,6.791 121.069,6.832C121.009,6.873 120.96,6.935 120.929,7.009C120.898,7.083 120.886,7.167 120.895,7.249C120.904,7.331 120.932,7.409 120.978,7.471C121.023,7.534 121.083,7.579 121.15,7.601C121.217,7.623 121.287,7.621 121.353,7.595C121.353,7.329 121.575,7.329 121.575,7.063ZM122.683,72.677C122.683,72.411 122.461,72.411 122.461,72.146C122.377,72.25 122.313,72.376 122.275,72.514C122.237,72.652 122.225,72.798 122.24,72.943C122.461,72.943 122.683,72.943 122.683,72.677ZM117.364,8.657C117.142,8.392 117.364,7.86 116.477,8.392L116.92,8.923C117.142,8.923 117.142,8.657 117.364,8.657ZM119.137,9.454C118.915,9.454 118.915,9.189 118.693,9.189L118.472,9.454C118.693,9.454 118.693,9.72 118.915,9.72L119.137,9.454ZM122.24,111.461C122.24,111.726 122.24,111.992 122.683,111.992L122.904,111.726C122.904,111.461 122.683,111.461 122.683,111.195C122.461,111.195 122.461,111.461 122.24,111.461ZM120.91,10.517C121.131,10.517 121.131,10.251 121.353,10.251C121.131,10.251 120.91,10.251 120.91,10.517ZM120.466,11.314L120.245,11.579C120.466,11.845 120.688,12.111 120.91,11.845C121.131,11.579 120.688,11.314 120.466,11.314ZM122.461,42.925L122.24,43.191C122.327,43.292 122.432,43.368 122.547,43.414C122.662,43.46 122.784,43.474 122.904,43.456C122.683,43.191 122.683,42.925 122.461,42.925ZM123.126,122.618L122.683,122.086C122.683,122.352 122.24,122.883 122.904,122.883L123.126,122.618ZM122.683,116.242C122.461,116.242 122.461,116.242 122.461,116.508L122.904,116.508L122.683,116.242ZM122.461,126.868C122.683,126.868 122.683,126.602 122.683,126.337C122.461,126.337 122.461,126.602 122.461,126.868ZM121.796,110.133L121.575,109.867L121.575,110.398L121.796,110.133ZM46.441,122.785L46.441,121.656C46.288,122.02 46.242,122.519 46.441,122.785ZM59.739,121.125C59.739,120.859 59.739,120.594 59.074,120.594C59.074,120.859 59.074,121.125 59.739,121.125ZM51.095,120.859C51.095,121.125 51.317,121.125 51.317,121.39L51.76,120.859C51.539,120.859 51.539,120.594 51.317,120.594L51.095,120.859Z"></path>
    </g>
</svg>
