<svg width="547" height="186" viewBox="0 0 547 186" fill="none" xmlns="http://www.w3.org/2000/svg">
<path d="M171.158 114.308C170.196 114.308 169.627 113.826 169.452 112.864L150.683 24.1392L150.552 23.6142C150.552 22.8267 151.033 22.4329 151.996 22.4329H165.252C166.302 22.4329 166.871 22.9142 166.958 23.8767L177.852 87.0076C177.939 87.2701 178.071 87.4014 178.246 87.4014C178.421 87.4014 178.552 87.2701 178.639 87.0076L189.271 23.8767C189.358 22.9142 189.927 22.4329 190.977 22.4329H203.839C204.977 22.4329 205.414 23.0017 205.152 24.1392L186.252 112.864C186.077 113.826 185.508 114.308 184.546 114.308H171.158Z" fill="black"/>
<path d="M229.929 115.358C222.667 115.358 216.935 113.433 212.736 109.583C208.623 105.733 206.567 100.526 206.567 93.9639V67.5827C206.567 61.1078 208.667 55.9453 212.867 52.0953C217.067 48.1578 222.754 46.1891 229.929 46.1891C237.192 46.1891 242.923 48.1578 247.123 52.0953C251.323 55.9453 253.423 61.1078 253.423 67.5827V93.9639C253.423 100.526 251.323 105.733 247.123 109.583C243.01 113.433 237.279 115.358 229.929 115.358ZM229.929 102.101C232.379 102.101 234.348 101.27 235.835 99.6076C237.41 97.8576 238.198 95.5826 238.198 92.7826V68.6327C238.198 65.9202 237.41 63.689 235.835 61.939C234.348 60.189 232.379 59.314 229.929 59.314C227.479 59.314 225.51 60.189 224.023 61.939C222.535 63.6015 221.792 65.8327 221.792 68.6327V92.7826C221.792 95.5826 222.535 97.8576 224.023 99.6076C225.51 101.27 227.479 102.101 229.929 102.101Z" fill="black"/>
<path d="M291.044 56.4265C291.044 56.864 290.869 57.2578 290.519 57.6078C290.257 57.8703 289.907 58.0015 289.469 58.0015H281.332C280.894 58.0015 280.676 58.2203 280.676 58.6578V93.0451C280.676 96.1076 281.244 98.2513 282.382 99.4763C283.519 100.614 285.226 101.139 287.501 101.051H288.419C288.857 101.051 289.207 101.226 289.469 101.576C289.819 101.839 289.994 102.189 289.994 102.626V112.733C289.994 113.17 289.819 113.564 289.469 113.914C289.207 114.176 288.857 114.308 288.419 114.308H283.957C278.007 114.308 273.501 113.214 270.438 111.026C267.463 108.839 265.976 104.726 265.976 98.6888V58.6578C265.976 58.2203 265.757 58.0015 265.319 58.0015H260.726C260.288 58.0015 259.894 57.8703 259.544 57.6078C259.282 57.2578 259.151 56.864 259.151 56.4265V48.8141C259.151 48.3766 259.282 48.0266 259.544 47.7641C259.894 47.4141 260.288 47.2391 260.726 47.2391H265.319C265.757 47.2391 265.976 47.0203 265.976 46.5828V32.1454C265.976 31.7079 266.107 31.3579 266.369 31.0954C266.719 30.7454 267.113 30.5704 267.551 30.5704H279.101C279.538 30.5704 279.888 30.7454 280.151 31.0954C280.501 31.3579 280.676 31.7079 280.676 32.1454V46.5828C280.676 47.0203 280.894 47.2391 281.332 47.2391H289.469C289.907 47.2391 290.257 47.4141 290.519 47.7641C290.869 48.0266 291.044 48.3766 291.044 48.8141V56.4265Z" fill="black"/>
<path d="M344.099 84.7764C344.099 85.2139 343.924 85.6076 343.574 85.9576C343.311 86.2201 342.961 86.3514 342.524 86.3514H313.518C313.08 86.3514 312.861 86.5701 312.861 87.0076V92.9139C312.861 95.6264 313.605 97.8576 315.093 99.6076C316.58 101.358 318.505 102.233 320.868 102.233C322.88 102.233 324.586 101.62 325.986 100.395C327.474 99.0826 328.436 97.4201 328.874 95.4076C329.136 94.5326 329.705 94.0951 330.58 94.0951L342.261 94.6201C342.699 94.6201 343.049 94.7951 343.311 95.1451C343.661 95.4076 343.792 95.8014 343.705 96.3263C343.092 102.451 340.861 107.176 337.011 110.501C333.161 113.739 327.78 115.358 320.868 115.358C313.693 115.358 308.005 113.476 303.805 109.714C299.693 105.864 297.636 100.658 297.636 94.0951V67.4515C297.636 61.064 299.693 55.9453 303.805 52.0953C308.005 48.1578 313.693 46.1891 320.868 46.1891C328.043 46.1891 333.686 48.1578 337.799 52.0953C341.999 55.9453 344.099 61.064 344.099 67.4515V84.7764ZM320.868 59.314C318.505 59.314 316.58 60.189 315.093 61.939C313.605 63.689 312.861 65.9202 312.861 68.6327V74.539C312.861 74.9764 313.08 75.1952 313.518 75.1952H328.349C328.786 75.1952 329.005 74.9764 329.005 74.539V68.6327C329.005 65.8327 328.261 63.6015 326.774 61.939C325.286 60.189 323.318 59.314 320.868 59.314Z" fill="black"/>
<path d="M381.082 46.1891C386.857 46.1891 391.364 48.0703 394.601 51.8328C397.926 55.5953 399.589 60.8015 399.589 67.4515V94.0951C399.589 100.57 397.97 105.733 394.732 109.583C391.495 113.433 386.945 115.358 381.082 115.358C376.357 115.358 372.42 113.826 369.27 110.764C369.095 110.589 368.92 110.545 368.745 110.633C368.57 110.72 368.482 110.895 368.482 111.158V112.733C368.482 113.17 368.307 113.564 367.957 113.914C367.695 114.176 367.345 114.308 366.907 114.308H354.832C354.395 114.308 354.001 114.176 353.651 113.914C353.389 113.564 353.257 113.17 353.257 112.733V24.0079C353.257 23.5704 353.389 23.2204 353.651 22.9579C354.001 22.6079 354.395 22.4329 354.832 22.4329H366.907C367.345 22.4329 367.695 22.6079 367.957 22.9579C368.307 23.2204 368.482 23.5704 368.482 24.0079V50.5203C368.482 50.7828 368.57 50.9578 368.745 51.0453C369.007 51.0453 369.27 50.8703 369.532 50.5203C371.195 49.0328 373.032 47.9391 375.045 47.2391C377.145 46.5391 379.157 46.1891 381.082 46.1891ZM384.495 68.6327C384.495 65.8327 383.751 63.6015 382.264 61.939C380.776 60.189 378.807 59.314 376.357 59.314C374.257 59.314 372.507 60.014 371.107 61.414C369.707 62.7265 368.832 64.5202 368.482 66.7952V94.7514C368.832 97.0263 369.707 98.8638 371.107 100.264C372.507 101.576 374.257 102.233 376.357 102.233C378.807 102.233 380.776 101.401 382.264 99.7388C383.751 97.9888 384.495 95.7139 384.495 92.9139V68.6327Z" fill="black"/>
<path d="M454.651 84.7764C454.651 85.2139 454.476 85.6076 454.126 85.9576C453.863 86.2201 453.513 86.3514 453.076 86.3514H424.07C423.632 86.3514 423.413 86.5701 423.413 87.0076V92.9139C423.413 95.6264 424.157 97.8576 425.645 99.6076C427.132 101.358 429.057 102.233 431.42 102.233C433.432 102.233 435.138 101.62 436.538 100.395C438.026 99.0826 438.988 97.4201 439.426 95.4076C439.688 94.5326 440.257 94.0951 441.132 94.0951L452.813 94.6201C453.251 94.6201 453.601 94.7951 453.863 95.1451C454.213 95.4076 454.344 95.8014 454.257 96.3263C453.644 102.451 451.413 107.176 447.563 110.501C443.713 113.739 438.332 115.358 431.42 115.358C424.245 115.358 418.557 113.476 414.357 109.714C410.245 105.864 408.188 100.658 408.188 94.0951V67.4515C408.188 61.064 410.245 55.9453 414.357 52.0953C418.557 48.1578 424.245 46.1891 431.42 46.1891C438.595 46.1891 444.238 48.1578 448.351 52.0953C452.551 55.9453 454.651 61.064 454.651 67.4515V84.7764ZM431.42 59.314C429.057 59.314 427.132 60.189 425.645 61.939C424.157 63.689 423.413 65.9202 423.413 68.6327V74.539C423.413 74.9764 423.632 75.1952 424.07 75.1952H438.901C439.338 75.1952 439.557 74.9764 439.557 74.539V68.6327C439.557 65.8327 438.813 63.6015 437.326 61.939C435.838 60.189 433.87 59.314 431.42 59.314Z" fill="black"/>
<path d="M486.006 46.1891C492.918 46.1891 498.518 48.2016 502.806 52.2266C507.093 56.2515 509.237 61.5453 509.237 68.1077V112.733C509.237 113.17 509.062 113.564 508.712 113.914C508.45 114.176 508.1 114.308 507.662 114.308H495.587C495.15 114.308 494.756 114.176 494.406 113.914C494.143 113.564 494.012 113.17 494.012 112.733V110.239C494.012 109.976 493.925 109.801 493.75 109.714C493.575 109.626 493.4 109.714 493.225 109.976C490.162 113.564 485.7 115.358 479.837 115.358C474.85 115.358 470.431 113.958 466.581 111.158C462.819 108.27 460.937 103.064 460.937 95.5388C460.937 87.6639 463.212 82.0639 467.762 78.7389C472.4 75.4139 478.656 73.7514 486.531 73.7514H493.356C493.793 73.7514 494.012 73.5327 494.012 73.0952V69.6827C494.012 66.5327 493.225 64.039 491.65 62.2015C490.075 60.2765 488.106 59.314 485.743 59.314C483.906 59.314 482.375 59.9265 481.15 61.1515C479.925 62.289 479.181 63.864 478.919 65.8765C478.831 66.9265 478.262 67.4515 477.212 67.4515H464.481C463.431 67.4515 462.95 66.9265 463.037 65.8765C463.475 59.9265 465.794 55.1578 469.994 51.5703C474.281 47.9828 479.619 46.1891 486.006 46.1891ZM484.037 102.758C486.662 102.758 488.981 101.926 490.993 100.264C493.006 98.6013 494.012 96.2826 494.012 93.3076V85.8264C494.012 85.3889 493.793 85.1702 493.356 85.1702H486.531C483.556 85.1702 481.15 86.0014 479.312 87.6639C477.475 89.2389 476.556 91.5576 476.556 94.6201C476.556 97.3326 477.256 99.3888 478.656 100.789C480.056 102.101 481.85 102.758 484.037 102.758Z" fill="black"/>
<path d="M546.852 56.4265C546.852 56.864 546.677 57.2578 546.327 57.6078C546.065 57.8703 545.715 58.0015 545.277 58.0015H537.14C536.702 58.0015 536.484 58.2203 536.484 58.6578V93.0451C536.484 96.1076 537.052 98.2513 538.19 99.4763C539.327 100.614 541.034 101.139 543.309 101.051H544.227C544.665 101.051 545.015 101.226 545.277 101.576C545.627 101.839 545.802 102.189 545.802 102.626V112.733C545.802 113.17 545.627 113.564 545.277 113.914C545.015 114.176 544.665 114.308 544.227 114.308H539.765C533.815 114.308 529.309 113.214 526.246 111.026C523.271 108.839 521.784 104.726 521.784 98.6888V58.6578C521.784 58.2203 521.565 58.0015 521.128 58.0015H516.534C516.096 58.0015 515.703 57.8703 515.353 57.6078C515.09 57.2578 514.959 56.864 514.959 56.4265V48.8141C514.959 48.3766 515.09 48.0266 515.353 47.7641C515.703 47.4141 516.096 47.2391 516.534 47.2391H521.128C521.565 47.2391 521.784 47.0203 521.784 46.5828V32.1454C521.784 31.7079 521.915 31.3579 522.177 31.0954C522.527 30.7454 522.921 30.5704 523.359 30.5704H534.909C535.346 30.5704 535.696 30.7454 535.959 31.0954C536.309 31.3579 536.484 31.7079 536.484 32.1454V46.5828C536.484 47.0203 536.702 47.2391 537.14 47.2391H545.277C545.715 47.2391 546.065 47.4141 546.327 47.7641C546.677 48.0266 546.852 48.3766 546.852 48.8141V56.4265Z" fill="black"/>
<path d="M6.20573 2.81314C5.54083 2.01621 5.76246 1.48493 5.98409 0.953646C6.2283 0.673719 6.53726 0.488564 6.87063 0.422362C6.68779 1.19931 6.61291 2.00704 6.64899 2.81314H6.20573ZM51.3745 9.45419C51.1529 9.98548 51.1529 10.2511 52.0394 10.7824C51.5962 10.5221 52.2611 9.72515 51.3745 9.45951V9.45419ZM1.77306 125.54V126.071H2.21633C2.43796 125.805 2.43796 125.274 2.43796 125.009C1.9947 125.009 1.9947 125.274 1.77306 125.54ZM6.87063 131.65V130.587C6.64899 130.853 6.42736 131.384 6.20573 131.65H6.87063ZM32.3584 122.086C32.5801 122.086 32.5801 121.821 32.8017 121.821L32.5801 121.555C32.3584 121.555 32.3584 121.821 32.1368 121.821L32.3584 122.086ZM24.6013 122.086C24.6013 121.821 24.3796 121.821 24.158 121.821C24.158 122.086 24.3796 122.086 24.6013 122.086ZM0.886532 3.34442C0.443266 3.61007 0.221633 4.67264 0.443266 5.46956C0.886532 5.20392 1.55143 4.93828 1.9947 4.40699C1.77306 3.87571 1.3298 3.34442 0.886532 3.34442ZM0 2.28186V2.81314C0.664899 3.07878 1.10817 2.81314 1.55143 2.28186C1.10817 2.01621 0.886532 1.21929 0 2.28186ZM8.86532 59.6606C9.08696 59.9262 9.53022 60.1918 9.75185 59.9262C9.97349 59.6605 9.75185 59.1293 9.30859 58.598C9.08696 58.8636 8.64369 59.1293 8.86532 59.6606ZM9.08696 53.8164C9.30859 53.5508 9.75185 53.0195 9.75185 52.7539C9.75185 52.4882 9.53022 51.9569 8.64369 52.4882C9.08696 52.7539 8.64369 53.5508 9.08696 53.8164ZM8.42206 18.7517V18.486C8.50623 18.3814 8.56981 18.2555 8.60816 18.1176C8.64651 17.9798 8.65865 17.8333 8.64369 17.6891C8.42206 17.6891 7.97879 17.9547 7.75716 17.9547L8.42206 18.7517ZM7.75716 10.7824V12.6419C7.75716 12.1106 8.86532 11.845 7.75716 10.7824ZM9.53022 56.2072C9.30859 56.7385 8.86532 57.2698 8.86532 57.8011C8.95262 57.7002 9.05764 57.624 9.17268 57.578C9.28772 57.532 9.40988 57.5175 9.53022 57.5354V56.2072ZM9.53022 63.1139H9.08696C9.30859 63.6452 9.53022 63.9108 9.53022 64.4421V63.1139ZM9.53022 93.1315L9.75185 93.3971C9.97349 93.3971 9.97349 93.1315 10.1951 92.8658C9.97349 92.8658 9.97349 92.6002 9.75185 92.6002C9.63136 92.7433 9.55348 92.93 9.53022 93.1315ZM9.08696 35.4871C9.08696 35.2215 9.08696 34.9558 8.86532 34.9558C8.64369 34.9558 8.64369 35.2215 8.42206 35.2215C8.50935 35.3224 8.61437 35.3986 8.72941 35.4445C8.84446 35.4905 8.96662 35.505 9.08696 35.4871ZM8.64369 40.003H9.08696C9.08696 39.7374 9.08696 39.4718 8.42206 39.4718C8.42206 39.7374 8.64369 39.7374 8.64369 40.003ZM9.30859 73.7396C9.30859 73.4739 9.53022 73.4739 9.53022 73.2083C9.30859 73.2083 9.30859 73.4739 9.08696 73.4739L9.30859 73.7396ZM9.75185 50.8944C9.63151 50.8764 9.50935 50.891 9.39431 50.9369C9.27927 50.9829 9.17425 51.0591 9.08696 51.16L9.30859 51.4256C9.75185 51.4256 9.75185 51.16 9.75185 50.8944ZM10.4168 111.195V110.664C10.1951 110.664 10.1951 110.929 9.97349 110.929C9.97349 111.195 10.1951 111.461 10.4168 111.195ZM10.1951 97.913L9.97349 97.6474L9.75185 97.913H10.1951ZM8.64369 28.8461H8.20042L8.42206 29.1117C8.64369 29.1117 8.64369 29.1117 8.64369 28.8461ZM9.30859 36.8153L9.08696 36.5497L8.86532 36.8153L9.08696 37.081L9.30859 36.8153ZM95.4219 8.39163H95.6435C95.2003 7.32906 95.6435 6.26649 94.757 5.46956C94.9786 4.14135 94.0921 3.07878 95.4219 1.75057C95.2003 1.75057 94.9786 1.48493 94.757 1.48493C93.8705 2.81314 94.757 4.67264 94.0921 6.26649C94.757 6.79777 94.9786 7.5947 95.4219 8.39163ZM92.9839 7.86034C93.4272 8.12598 93.8705 8.65727 94.3137 8.39163L94.5354 7.86034C94.0921 7.06341 93.2056 6.79777 92.5407 6.00085C92.319 6.00085 92.0974 6.26649 91.8758 6.26649C92.0974 6.79777 92.5407 7.32906 92.9839 7.86034ZM96.7517 7.06342C96.7517 6.26649 96.5301 5.46956 96.0868 5.20392C95.8652 5.20392 95.6435 5.7352 95.6435 6.00085C95.8652 6.53213 95.8652 7.06342 96.7517 7.06342ZM93.6488 4.93828C93.6256 4.73684 93.5477 4.55016 93.4272 4.40699C93.2056 4.40699 92.7623 4.67264 92.5407 4.67264C92.7623 4.93828 92.7623 5.46956 93.6488 4.93828ZM96.9733 3.34442C96.9733 3.07878 96.7517 2.5475 96.5301 2.5475C96.3084 2.5475 96.0868 3.07878 96.5301 3.61007C96.6981 3.58218 96.8539 3.48884 96.9733 3.34442ZM90.546 8.39163C90.3243 8.65727 90.1027 8.92291 90.3243 9.18855H90.9892V8.65727C90.9892 8.12598 90.7676 8.39163 90.546 8.39163ZM92.5407 10.7824C92.7623 10.7824 92.7623 10.2511 92.7623 9.98548L92.5407 9.71984C92.4565 9.82447 92.3929 9.95034 92.3546 10.0882C92.3162 10.2261 92.3041 10.3725 92.319 10.5168L92.5407 10.7824ZM96.3084 9.18855C96.5301 8.92291 96.7517 8.92291 96.9733 8.65727C96.7517 8.65727 96.5301 8.39163 96.3084 9.18855ZM92.319 1.75057C92.319 1.48493 92.0974 1.48493 92.0974 1.21929C92.0974 1.48493 91.8758 1.48493 91.8758 1.75057L92.0974 2.01621L92.319 1.75057ZM63.5067 11.048V10.5168L63.2851 10.7824L63.5067 11.048ZM98.968 8.65727L98.7464 8.39163L98.5248 8.65727L98.7464 8.92291L98.968 8.65727ZM63.95 11.048L64.1716 11.3137C64.3933 11.3137 64.6149 11.048 64.3933 10.7824C64.1716 10.5168 63.95 10.7824 63.95 11.048ZM90.3243 3.07878C90.3243 2.81314 90.3243 2.5475 90.1027 2.5475C90.1027 2.81314 90.1027 3.07878 90.3243 3.07878ZM122.461 85.4278C122.683 84.8966 124.013 85.6935 122.683 83.834C122.24 83.5683 121.796 83.5683 121.353 83.3027C121.131 83.3027 121.131 83.0371 120.91 82.7714L122.24 81.9745C121.131 81.9745 121.575 80.9119 121.575 80.115C122.24 80.115 122.683 79.5837 122.904 78.5211C122.613 78.5114 122.323 78.5776 122.056 78.7152C121.788 78.8528 121.548 79.0585 121.353 79.3181C121.353 77.9899 121.353 76.9273 121.796 75.5991C121.796 75.0678 121.575 74.5365 121.131 74.0052C121.796 72.9427 122.24 71.6144 121.575 70.2862C121.353 70.0206 120.91 70.0206 120.688 69.755C120.688 69.4893 121.131 68.6924 121.353 68.6924C121.796 68.958 122.461 68.958 122.904 69.755C122.76 69.3333 122.685 68.8824 122.683 68.4267C121.131 67.6298 121.575 65.5047 121.353 63.9108L121.796 63.6452C122.018 63.1139 118.25 64.1765 122.24 62.0513L121.575 61.2544C121.796 61.2544 122.24 61.2544 122.461 60.9888V60.4575C121.131 60.1918 121.131 58.3323 121.575 57.2698C121.575 57.0041 121.353 56.7385 121.353 56.4728C121.796 54.3477 121.796 52.4882 121.353 50.6287C121.131 50.0974 122.018 50.0974 122.683 50.0974C122.66 49.896 122.582 49.7093 122.461 49.5662C120.91 49.3005 121.131 47.1754 121.575 46.1128C121.796 45.8472 122.461 46.1128 122.904 46.1128C122.683 45.5815 122.461 45.3159 122.24 44.7846L121.796 45.3159C121.575 43.1907 121.131 41.0656 121.796 38.9405C122.018 38.1435 120.91 38.1435 120.91 37.8779C121.131 37.081 121.575 36.284 121.796 35.4871C122.018 35.7528 122.461 35.4871 122.683 34.9558C122.683 34.4246 121.796 34.4246 121.575 34.1589C121.353 33.6276 121.353 32.2994 122.018 31.7681C122.24 31.7681 122.683 32.0338 122.683 31.2368C122.683 30.9712 122.018 30.7056 122.018 30.4399C121.796 28.8461 121.796 27.5179 121.353 25.924C121.353 25.3927 121.575 24.5958 122.461 24.5958L122.683 24.0645C122.24 23.0019 121.575 21.6737 120.245 21.6737C120.466 21.4081 120.466 21.1424 120.688 21.1424H121.353C121.796 20.3455 122.461 21.1424 122.904 20.3455C122.24 19.5486 120.688 19.8142 121.131 18.2204C121.131 17.6891 122.018 17.9547 121.796 16.6265C121.353 15.564 120.688 14.2358 121.353 13.1732C121.796 12.9075 122.24 13.7045 122.904 13.4388L120.91 11.845C120.023 13.1732 118.915 11.845 118.028 11.048C118.028 11.5793 117.364 11.845 117.364 12.3763C116.034 12.1106 115.591 13.7045 114.704 14.2358C114.926 15.2983 115.147 16.8922 115.812 17.6891C116.255 17.9547 116.477 17.1578 116.92 17.1578C116.699 17.9547 116.255 18.486 115.369 18.7517C115.248 18.8948 115.171 19.0815 115.147 19.283C115.369 19.5486 115.812 19.5486 116.034 19.8142C116.255 19.8142 116.477 20.0799 116.255 20.3455C115.812 20.8768 115.147 20.8768 114.704 21.1424C114.482 21.4081 114.482 22.205 115.147 22.7363L114.704 23.2676C114.482 23.5332 114.926 24.0645 114.926 24.3302C114.926 25.3927 114.261 26.7209 115.369 27.7835C114.926 28.0491 114.261 28.5804 114.926 29.9086C115.147 29.9086 115.591 29.9086 115.591 30.1743C115.591 30.7056 114.261 29.643 115.369 31.7681C115.201 31.796 115.045 31.8894 114.926 32.0338C114.704 34.1589 115.369 36.284 114.704 38.4092C114.704 38.6748 114.926 38.9405 114.926 39.2061C114.806 39.3505 114.65 39.4439 114.482 39.4718C114.704 40.003 115.369 40.5343 115.147 40.8C115.147 41.5969 114.926 42.1282 115.147 43.4564C115.369 43.722 114.482 44.2533 114.704 44.519C114.926 45.5815 114.926 46.6441 114.926 47.9723C114.926 48.2379 115.147 48.5036 115.147 48.7692C114.926 48.7692 114.482 48.7692 114.261 49.0349C114.926 49.5662 115.369 50.6287 115.147 51.4256C115.147 52.2226 115.369 52.7539 115.591 53.5508C115.369 53.5508 114.926 53.2851 114.704 53.2851C114.704 53.8164 115.369 54.3477 114.482 55.1446C114.926 55.4103 115.369 55.6759 115.369 55.9416C114.926 57.0041 114.926 58.3323 116.034 58.598C115.591 58.8636 114.926 59.1293 114.926 59.6606C114.704 60.4575 115.147 61.52 115.369 62.317C115.147 62.317 114.704 61.7857 114.482 62.0513C114.261 62.317 114.704 62.8483 114.704 63.1139C114.482 65.5047 114.926 67.3642 115.147 69.4893C114.907 69.4882 114.674 69.5815 114.482 69.755C114.482 70.0206 115.591 69.4893 114.482 71.0832C114.482 71.3488 114.926 71.8801 114.926 72.1457C114.926 72.4114 114.482 72.677 114.482 72.677C114.926 74.0052 114.926 75.5991 115.147 77.1929C115.147 77.7242 114.926 78.2555 114.482 78.7868C114.748 78.9831 114.968 79.2562 115.123 79.5811C115.278 79.9059 115.363 80.2722 115.369 80.6463C114.926 80.6463 114.261 80.6463 114.482 81.1776C114.704 82.7603 114.704 84.3763 114.482 85.9591C114.482 86.4904 114.704 87.0217 114.704 87.553C114.704 87.8186 114.482 87.8186 114.482 88.0843C114.704 88.6155 115.147 89.4125 114.926 89.9438C114.039 91.5376 114.482 93.9284 115.369 95.5222C115.147 95.7879 114.704 95.7879 114.704 96.0535C114.704 97.1161 114.482 97.913 114.482 98.7099C114.482 99.7725 115.147 101.101 115.812 102.163C114.926 102.695 114.704 103.757 114.704 104.82C114.704 105.085 115.147 105.351 115.369 105.351C115.147 105.617 114.482 105.617 114.482 105.882C114.672 107.415 114.969 108.925 115.369 110.398C115.369 110.929 114.926 111.195 114.926 111.726C114.926 112.258 115.369 112.789 115.369 113.055C114.039 114.648 115.147 116.508 115.147 118.367C115.147 118.899 114.704 119.43 114.704 119.961C114.727 120.163 114.805 120.349 114.926 120.493C114.704 120.758 114.261 121.29 114.261 121.555C114.704 122.086 115.147 122.883 114.704 123.946L115.147 124.477C114.482 125.009 114.039 123.68 113.153 124.743C112.044 124.212 111.158 124.212 110.05 124.477C109.606 124.477 109.385 124.212 108.72 124.477C108.498 124.477 108.498 123.946 108.277 123.946C106.504 123.946 104.509 124.212 102.736 123.68C102.736 123.946 102.514 124.477 102.514 124.743C102.293 124.477 102.071 123.946 101.849 123.946C101.184 124.212 100.741 123.946 100.076 123.68C99.6329 123.415 99.1897 123.946 98.968 123.946C97.4166 123.415 96.0868 123.946 94.5354 123.946C94.3137 123.946 93.6488 123.946 93.6488 122.618C93.5294 122.473 93.3736 122.38 93.2056 122.352C92.7623 122.618 92.9839 123.149 92.9839 123.68C92.7397 123.96 92.4308 124.145 92.0974 124.212C91.4325 124.212 90.9892 123.415 90.546 122.883C89.8811 123.946 88.9945 122.883 88.108 122.883C88.1044 122.998 88.0926 123.112 88.0725 123.223C87.9673 122.994 87.8293 122.789 87.6647 122.618C87.6647 122.883 87.4631 123.128 88.0327 123.383C88.0026 123.494 87.9527 123.595 87.8864 123.68C87.4431 123.946 87.2215 123.149 86.9998 123.149C85.6098 123.457 84.2019 123.635 82.7888 123.68C82.1239 123.415 81.6806 123.415 81.0158 122.883C80.7941 122.883 81.0158 122.086 80.5725 121.555C80.1292 122.352 80.3509 123.68 79.4643 123.415C78.7994 123.415 78.1345 122.883 77.4696 123.149C77.2946 123.391 77.1457 123.659 77.0264 123.946C76.1398 123.68 75.6966 122.618 75.2533 121.555C75.1338 121.411 74.9781 121.317 74.81 121.29C74.5884 121.821 75.2533 122.352 75.0317 122.883C74.5884 123.149 74.1451 122.086 73.7019 123.415C72.3721 123.415 71.2639 123.149 69.9341 122.883C69.4908 122.883 69.7125 123.946 69.2692 123.68C69.0476 123.149 69.4908 122.086 69.9341 121.555C68.8259 121.555 68.6043 122.352 68.3827 123.415C68.161 123.149 67.7178 122.883 67.4961 122.618C67.2745 122.883 67.2745 123.415 67.0529 123.68C66.6096 123.149 66.1663 122.618 65.5014 122.352C65.2798 122.883 65.0582 123.68 64.3933 123.415C64.1716 123.149 63.7284 122.618 63.0635 122.883V121.29C62.6202 121.29 61.9553 121.29 61.7337 122.086C61.7337 122.352 61.9553 122.352 61.9553 122.618C61.512 122.618 61.0688 123.149 60.6255 123.68C60.5871 123.402 60.5123 123.133 60.4039 122.883C58.9588 123.229 57.2678 123.659 57.0794 121.39C56.8577 122.187 56.4145 122.719 56.1928 123.516L55.3063 122.453C55.0847 122.984 54.8631 123.25 54.1982 122.984L53.9765 122.453C53.09 122.453 51.7602 123.516 50.8737 121.39C50.652 121.125 49.9871 120.859 49.7655 121.125C49.4707 121.829 49.2956 122.626 48.9521 123.085C48.8989 122.875 48.7482 122.711 48.316 122.883C48.2707 122.881 48.2258 122.895 48.1865 122.922C48.1473 122.949 48.1153 122.989 48.0944 123.037C47.9747 122.551 47.8594 121.845 47.5425 121.656C47.4614 121.873 47.3983 122.099 47.3541 122.331C46.7934 122.171 47.1923 123.16 46.9796 123.415C46.5363 123.68 46.093 123.946 45.6498 123.946C43.8767 123.68 42.1036 122.883 40.3306 123.415C39.8873 123.415 39.6657 124.212 39.0008 123.946C38.5575 123.68 38.5575 122.883 38.5575 122.086C38.1142 122.352 37.671 122.618 37.671 123.68C36.7844 123.415 35.8979 124.477 35.0114 123.68C34.7897 123.149 35.0114 122.352 35.233 121.821C34.7897 122.086 34.5681 122.352 34.1248 122.618C34.3465 122.883 34.3465 123.149 34.5681 123.415C32.795 123.149 31.022 123.946 29.2489 123.149C28.584 122.883 28.584 124.212 28.3624 123.946C27.844 123.962 27.3301 123.826 26.8663 123.548C26.4024 123.27 26.0028 122.859 25.7028 122.352C25.4812 122.352 25.0379 122.883 25.2595 123.68C24.6113 123.461 23.9374 123.371 23.2648 123.415C22.8216 123.149 23.2648 122.086 22.8216 122.086C22.3783 122.352 21.935 123.415 21.7134 123.149C20.3836 122.883 19.4971 123.68 18.1673 123.68C17.2807 123.68 17.2807 122.352 16.8375 122.352C15.9509 122.086 15.286 123.415 14.6211 124.212C14.6211 124.477 15.0644 125.274 14.3995 125.009C13.9562 124.743 14.3995 123.946 14.1779 123.68C13.513 123.149 13.9562 122.618 13.513 122.086C13.0697 122.883 12.8481 123.68 12.1832 124.477C11.9615 124.477 11.7399 123.946 11.5183 123.68C10.8534 123.149 9.96684 123.415 9.08031 123.946C9.08031 122.883 9.96684 122.883 10.4101 122.618C9.96684 122.086 9.30194 121.821 9.08031 121.29C9.08031 119.696 8.41541 118.102 9.08031 116.774C9.08031 116.242 9.30194 115.711 9.30194 115.18C9.08031 114.914 8.63704 114.648 8.41541 114.383C9.30194 113.32 9.52357 111.195 8.85867 109.867L9.08031 109.601C9.74521 109.336 10.1885 109.867 10.6317 110.133C10.6467 109.988 10.6346 109.842 10.5962 109.704C10.5579 109.566 10.4943 109.44 10.4101 109.336C9.74521 108.804 8.85867 110.133 8.63704 108.273C8.63704 108.007 9.52357 108.007 8.41541 106.414C9.52357 105.085 8.63704 103.757 8.63704 102.163C8.63704 101.898 9.52357 102.429 8.63704 100.835C8.85867 100.569 9.30194 100.835 9.52357 101.366C9.74521 101.101 10.4101 100.835 9.74521 100.038C9.52357 99.7725 9.08031 100.038 8.85867 99.7725C8.63704 98.7099 9.30194 97.913 8.85867 96.8504C9.30194 96.8504 9.74521 96.5848 10.1885 96.0535V95.5222C9.74521 95.2566 8.85867 96.0535 8.85867 95.7879C8.41541 95.2566 9.08031 94.194 9.08031 93.3971C8.85867 91.5376 9.08031 89.9437 9.08031 88.0843C9.30194 87.2873 9.74521 88.3499 10.1885 88.0843C10.4101 87.8186 10.1885 87.2873 9.96684 87.2873C9.52357 87.2873 9.08031 87.8186 8.63704 87.2873C8.41541 86.756 8.85867 86.4904 9.08031 85.9591C9.08031 85.4278 8.41541 85.1622 7.97214 85.1622C8.41541 84.3653 7.97214 83.3027 8.41541 82.5058H9.30194C9.52357 81.9745 9.96684 81.1776 8.41541 80.6463C8.85867 80.115 8.41541 79.5837 8.41541 79.0524C8.19377 78.5211 8.85867 77.7242 8.63704 77.1929L7.97214 76.396C8.24591 76.0933 8.47124 75.7332 8.63704 75.3334C8.85867 74.5365 8.19378 74.2709 8.63704 73.4739C8.41541 73.2083 7.97214 73.2083 7.75051 72.9427C8.00889 72.8046 8.22932 72.5816 8.38624 72.2995C8.54315 72.0174 8.63011 71.6878 8.63704 71.3488C8.85867 71.3488 8.85867 71.6144 9.08031 71.6144C9.52357 71.3488 9.96684 70.5519 9.74521 70.0206C9.52357 69.755 8.85867 70.0206 8.41541 70.2862C8.63704 69.755 8.41541 69.2237 7.97214 68.4267C7.75051 67.8955 8.41541 67.3642 8.85867 67.0985C8.63704 66.3016 8.19377 65.7703 7.75051 65.239C7.97214 64.9734 8.41541 64.9734 8.63704 64.7078C8.41541 64.4421 8.19378 63.9108 7.97214 63.6452C8.36826 63.5621 8.74563 63.3811 9.08031 63.1139C9.35735 62.8483 9.52357 62.4498 9.52357 61.7857C9.08031 62.317 8.19377 62.8483 7.75051 62.5826C7.52888 62.0513 8.41541 62.0513 8.41541 61.7857C8.19377 60.1918 8.19377 58.598 7.75051 57.2698C8.19377 57.2698 8.19378 57.5354 8.63704 55.6759C8.63704 55.4103 9.08031 56.2072 9.74521 55.6759C8.85867 55.1446 8.19378 54.0821 7.52888 53.2851C8.41541 53.0195 8.19378 51.9569 8.19378 51.16C8.19378 50.8944 7.52888 50.6287 7.52888 50.3631C7.52888 49.0349 8.85867 49.5662 9.52357 49.0349C7.52888 48.7692 7.52888 45.8472 7.97214 43.9877C7.97214 43.4564 8.19377 43.1907 7.75051 42.6595C7.52888 42.1282 7.97214 41.8625 7.97214 41.3312C7.97214 41.0656 7.30724 40.8 7.52888 40.2687C7.75051 40.003 7.97214 40.003 8.19378 39.7374C8.41541 38.9405 7.75051 37.8779 8.19378 37.081C7.52888 36.284 6.86398 34.9558 7.52888 33.8933C7.75051 33.8933 8.63704 34.6902 8.63704 33.6276C8.63704 33.0963 7.97214 33.362 7.52888 32.8307C7.30724 32.2994 7.08561 31.7681 7.30724 31.2368C7.97214 29.9086 7.97214 28.3148 7.30724 26.7209C7.75051 25.6584 7.08561 24.3302 7.30724 23.2676C7.30724 23.0019 6.86398 22.7363 6.64234 22.4707C6.86398 22.4707 7.30724 22.205 7.52888 22.205C7.08561 21.4081 7.30724 20.6112 7.52888 19.5486C7.52888 19.283 7.08561 19.283 7.08561 19.0173C7.26957 17.7906 7.34386 16.5439 7.30724 15.2983L6.86398 15.0327C6.86398 14.767 7.08561 14.5014 7.08561 14.2358C6.64234 13.1732 7.30724 12.3763 7.08561 11.3137C6.86398 10.7824 6.64234 10.2511 6.64234 9.98548C7.52888 8.92291 6.42071 7.5947 6.86398 6.26649C7.08561 6.53213 7.30724 7.06342 7.52888 7.06342C8.19378 7.06342 7.75051 6.00085 7.97214 5.46956H8.41541C8.63704 6.00085 8.63704 6.79777 8.63704 7.5947C8.85867 7.5947 9.08031 7.32906 9.30194 7.32906C9.25451 7.51368 9.24997 7.7103 9.28881 7.89778C9.32764 8.08526 9.40838 8.25651 9.52234 8.3931C9.63631 8.52969 9.77918 8.62647 9.9356 8.67301C10.092 8.71956 10.2561 8.71412 10.4101 8.65727C10.6317 8.39163 10.8534 7.5947 11.2966 7.32906C11.5183 7.5947 11.5183 8.12598 11.7399 8.39163C12.0431 7.89874 12.2247 7.31365 12.2639 6.70305C12.3031 6.09246 12.1983 5.48095 11.9615 4.93828C13.0697 5.20392 12.4048 6.79777 12.6264 7.5947C12.6264 8.39163 13.513 7.32906 13.9562 7.5947C14.3995 8.12598 14.8428 7.5947 15.0644 8.39163C15.286 8.39163 15.286 8.12598 15.5077 8.12598C15.5077 8.65727 15.7293 8.65727 15.9509 8.65727C16.1726 7.5947 16.8375 8.65727 17.2807 8.39163C17.5024 7.86034 17.0591 7.06342 17.2807 6.53213C17.724 6.00085 17.9456 7.06342 18.3889 7.06342C18.8322 7.5947 19.0538 8.92291 19.7187 8.39163C19.9403 8.12598 19.7187 7.32906 19.7187 6.79777C19.7187 6.53213 20.162 6.53213 20.162 6.53213C20.3836 7.06342 20.162 7.86034 20.162 8.39163C20.2814 8.53604 20.4372 8.62938 20.6052 8.65727C20.8269 8.65727 21.2701 8.39163 21.4918 8.39163C22.3783 8.92291 23.2648 8.65727 24.1514 8.65727C24.8163 8.65727 25.0379 7.5947 25.2595 7.06342C25.7028 7.5947 25.9244 8.39163 26.3677 8.65727C27.9191 8.65727 29.6922 8.65727 31.2436 8.92291C31.4652 9.18855 31.4652 9.71984 31.4652 9.98548C32.1301 8.39163 33.6816 7.32906 34.7897 8.92291C35.3682 8.30131 35.233 9.18855 35.233 9.98548C36.1195 9.98548 36.5628 9.45419 37.2277 8.65727C37.315 8.55638 37.42 8.48018 37.5351 8.43422C37.6501 8.38826 37.7723 8.3737 37.8926 8.39163C39.0008 8.92291 40.1089 8.92291 40.9955 7.86034C40.9955 8.12598 40.9955 8.65727 41.2171 8.65727C42.3253 9.18855 43.6551 9.18855 44.9849 8.65727V7.86034C45.2065 7.5947 45.4281 7.86034 45.4281 8.12598V10.2511C45.6498 9.71984 45.8714 9.18855 46.3147 8.92291C46.5363 9.45419 46.7579 9.98548 47.2012 9.98548C47.8661 9.71984 47.6445 10.7824 48.0877 10.5168C48.5598 10.1396 48.2495 9.75968 48.1099 9.28684C48.1546 9.12409 48.1908 8.95819 48.2185 8.79009C48.3936 8.94897 48.59 9.07112 48.7992 9.15136C49.0208 9.417 49.3134 9.0212 49.7566 9.28684C49.9783 9.28684 50.1999 10.3494 50.6432 10.615C50.8648 10.615 50.8648 10.0838 50.4215 9.28684L50.6432 9.0212C51.3081 9.55248 51.973 9.0212 52.4162 9.0212C53.0811 9.28684 52.4162 10.615 52.6379 10.615C53.3028 10.8807 53.746 9.55248 53.3028 8.75555C53.5244 8.75555 53.5244 8.48991 53.746 8.48991C53.746 9.0212 53.746 9.55248 54.6326 9.55248C54.8542 9.28684 54.6326 8.75555 55.0758 8.48991C55.2439 8.51779 55.3996 8.61113 55.5191 8.75555C55.5107 9.2481 55.3532 9.72018 55.0758 10.0838C54.8542 10.3494 54.4109 10.0838 54.6326 10.8807C54.8542 10.8807 55.2975 10.8807 55.5191 9.81812C55.6385 9.6737 55.7943 9.58036 55.9624 9.55248C56.184 10.3494 56.6273 11.412 57.5138 10.8807L57.7354 10.615C57.5337 10.615 57.3343 10.615 57.2922 10.2113C57.3058 10.0316 57.3552 9.85839 57.4362 9.70626C57.5172 9.55414 57.6274 9.42749 57.7576 9.33695C57.8879 9.24642 58.0343 9.19461 58.1847 9.18589C58.3351 9.17717 58.485 9.21179 58.622 9.28684C58.8436 9.55248 59.0652 10.3494 59.2868 10.3494C59.9518 10.3494 58.8436 8.75555 60.395 9.0212C60.1734 9.55248 59.9518 10.0838 59.9518 10.615C60.082 10.302 60.2709 10.0293 60.5036 9.81812C60.6034 9.96688 60.5745 10.0519 60.6166 10.2591C61.0599 9.99345 61.5032 9.19653 61.7248 9.46217C62.3897 9.46217 63.0546 8.93089 63.7195 9.19653C63.9411 9.46217 63.9411 9.99345 64.1628 9.99345C64.606 9.99345 65.0493 9.19653 65.4926 9.46217C65.9358 9.46217 66.1575 9.99345 66.6007 10.5247C66.3791 8.93089 67.9305 9.19653 68.5954 9.72781V10.7904C69.2603 9.46217 70.3685 9.46217 71.4767 9.19653V10.2591C72.3632 9.46217 73.9146 8.66524 74.8012 10.2591C75.0655 9.94699 75.3637 9.67894 75.6877 9.46217C76.131 9.19653 76.5742 9.46217 77.0175 9.46217C76.7959 9.72781 76.5742 10.2591 77.0175 10.2591C77.2391 10.5247 77.4608 9.72781 77.4608 9.19653C77.8011 9.41126 78.1859 9.50352 78.5689 9.46217C78.2354 9.6609 77.935 9.93097 77.6824 10.2591C78.2547 10.4778 78.8558 10.5679 79.4555 10.5247C79.2338 9.99345 79.2338 9.46217 80.342 9.19653C80.5636 9.19653 80.5636 9.99345 80.5636 10.2591C81.2285 9.72781 81.8934 8.93089 82.78 8.93089C83.4449 8.93089 83.2232 10.2591 83.6665 10.5247C83.9999 10.4585 84.3088 10.2734 84.553 9.99345C84.3314 9.72781 83.8881 9.72781 83.6665 9.46217C83.8881 9.19653 84.1098 8.3996 84.553 8.66524L84.7747 9.19653C85.2179 9.19653 85.6612 9.19653 85.8828 9.46217C85.8828 9.72781 86.1045 10.2591 86.991 9.99345C86.7694 9.72781 86.7693 9.46217 86.5477 9.19653C87.4342 8.66524 88.764 8.13396 89.6506 9.19653C89.4289 8.3996 89.8722 7.60268 90.3155 7.07139H90.7588C91.4236 8.13396 91.8669 9.19653 92.7534 8.3996C92.7534 8.13396 92.0885 7.60268 92.0885 7.60268C91.202 6.00882 91.4236 4.14933 91.8669 2.28983C91.202 2.55548 91.202 3.61804 90.3155 3.61804C90.7587 4.94625 89.6506 5.47754 89.4289 6.54011H88.9857V6.00882C89.2073 5.74318 89.6506 5.2119 89.6506 4.94625C88.9857 3.61804 89.2073 2.28983 88.764 1.22727C88.0992 1.75855 88.5424 2.82112 88.0992 3.61804C87.6559 3.08676 87.4342 2.82112 86.7693 2.82112C86.3261 2.82112 86.1045 2.28983 85.8828 2.02419C85.4396 2.02419 85.8828 2.82112 85.4396 3.08676C85.4396 0.961623 83.6665 1.49291 82.3367 0.961623C81.0069 1.75855 79.4555 1.22727 78.1257 1.22727C78.1257 1.75855 77.6824 2.02419 77.904 2.55548H77.4608C77.3809 2.23954 77.2437 1.94869 77.059 1.70381C76.8743 1.45893 76.6467 1.26609 76.3925 1.13913C76.1382 1.01216 75.8637 0.954216 75.5886 0.969454C75.3134 0.984693 75.0445 1.07274 74.8012 1.22727C73.693 1.75855 72.5848 1.49291 71.4767 1.49291C69.7036 1.75855 67.9305 1.22727 66.1575 0.695981C65.9358 0.695981 65.7142 0.961623 65.4926 1.49291C64.606 0.961623 63.7195 1.49291 62.833 1.49291C62.3897 1.22727 61.9464 0.961623 61.5032 1.22727C61.3313 1.45565 61.0939 1.59794 60.8383 1.62573C60.5856 1.62573 60.4105 1.19008 60.1734 1.32821C59.9517 1.06257 59.9518 0.531284 59.7301 0.265642C59.5085 0.531284 59.5085 1.06257 59.2868 1.32821C59.0652 1.32821 58.8436 1.06257 58.622 1.06257C57.7354 1.59385 57.0705 1.06257 56.184 1.06257L55.9624 1.32821C55.7407 0.796926 55.7407 0.531284 55.5191 0C55.0758 0.796926 54.6326 0.265642 53.9677 0.265642L53.746 0.531284C53.746 1.06257 53.9677 1.32821 54.1893 1.85949H53.746C53.3028 1.59385 53.3028 0.265642 51.973 1.06257C51.7513 1.32821 51.7513 2.12514 51.5297 2.39078C51.4308 2.3419 51.3239 2.32099 51.2172 2.32967L51.0864 2.39078C51.0864 2.12514 51.3081 1.32821 50.8648 1.32821C50.2176 1.32821 49.9228 1.7426 49.6369 2.22872V1.06787C48.7704 0.932393 47.9348 0.876618 47.199 1.75855C46.9773 1.49291 46.7557 0.961623 46.3124 1.22727C45.8692 1.49291 45.8692 2.02419 45.8692 2.55548C45.4259 2.28983 45.4259 1.75855 45.2043 1.22727C43.8745 0.164697 42.5447 1.22727 40.9933 0.961623C40.55 0.695981 39.6635 0.430339 39.4418 1.49291C37.4471 0.430339 35.2308 0.961623 33.2361 0.961623C32.7928 0.961623 32.1279 0.430339 31.6847 1.75855C31.3848 1.36326 30.9843 1.09799 30.5455 1.00412L30.5765 0.961623H30.1332C29.4683 0.961623 28.5818 0.961623 27.9169 0.695981C26.5871 0.695981 27.252 1.49291 27.252 2.28983C26.8333 2.07328 26.3769 1.98211 25.9222 2.02419C26.1438 1.49291 26.1438 0.961623 26.3655 0.430339C25.9963 0.807078 25.5196 0.997526 25.0357 0.961623C24.5924 0.961623 24.3708 1.49291 24.1491 2.02419C23.7059 1.75855 23.9275 0.695981 23.4842 0.695981C23.041 0.695981 22.8193 1.49291 22.8193 2.02419C23.041 2.28983 22.3761 2.82112 23.9275 2.82112C24.1491 2.55548 24.3708 3.3524 24.3708 3.88369C24.5924 2.82112 25.2573 3.08676 25.9222 3.3524C25.4789 3.61804 24.5924 3.61804 24.814 4.94625C24.1491 5.2119 23.9275 3.61804 22.8193 5.2119C23.2626 3.61804 22.1544 2.02419 21.2679 0.961623C21.2721 1.23545 21.212 1.50517 21.0944 1.74002C20.9768 1.97487 20.8066 2.16539 20.603 2.28983V1.22727C19.2732 0.695981 17.7218 0.430339 16.392 0.961623C16.1703 0.961623 15.9487 0.695981 15.7271 0.695981L15.0622 1.49291C14.8405 1.22727 14.8405 0.961623 14.6189 0.961623C13.954 0.961623 13.2891 1.22727 12.6242 0.430339C12.4026 0.430339 11.9593 0.961623 11.7377 0.961623C11.5161 0.961623 11.0728 0.695981 10.8512 0.695981C9.74299 1.22727 8.63482 0.695981 7.52666 0.695981C7.08339 2.02419 8.41319 3.3524 6.86176 4.41497C7.08339 4.68061 7.52666 4.94625 7.52666 5.2119C7.52666 5.74318 6.86176 5.47754 6.64012 5.47754C5.97523 4.94625 6.19686 3.61804 5.75359 2.82112C5.31033 1.49291 3.75889 2.02419 2.65073 1.49291C1.98583 1.22727 1.7642 0.695981 1.0993 0.695981C1.32093 1.22727 1.32093 1.75855 1.54256 2.28983H1.98583C2.4291 3.08676 2.87236 3.88369 3.53726 4.41497C2.65073 4.41497 2.20746 5.47754 1.54256 5.74318C1.15953 5.78453 0.774698 5.69228 0.434399 5.47754C0.411136 5.67898 0.333259 5.86566 0.212766 6.00882C0.434399 7.07139 0.434399 8.13396 0.656032 9.19653C0.877665 10.2591 1.7642 9.19653 2.20746 9.99345C1.54256 10.5247 0.434399 9.99345 0.212766 11.3217C0.212766 11.8529 0.434399 12.3842 0.877665 12.9155L0.212766 13.7124C0.434399 13.9781 0.656032 13.9781 0.877665 14.2437L0.212766 15.0407H1.0993C0.877665 15.3063 0.434399 15.5719 0.434399 15.8376C0.877665 16.9002 0.212766 17.6971 0.212766 18.7596C0.434399 19.2909 0.877665 19.2909 1.0993 19.8222C1.32093 20.3535 0.212766 20.8848 0.434399 21.4161C0.772438 21.7398 1.14514 22.0079 1.54256 22.213C1.32093 22.4786 0.656032 23.0099 0.656032 23.2756C0.877665 24.6038 0.877665 25.932 1.0993 27.2602C1.0993 27.5258 0.877665 27.7915 1.0993 28.3228C1.0993 29.1197 0.434399 29.9166 0.656032 30.7135C0.775481 30.858 0.931234 30.9513 1.0993 30.9792C0.877665 31.2448 0.656032 31.2448 0.434399 31.5105C0.656032 31.7761 0.877665 32.0418 0.877665 32.3074C0.877665 32.573 0.656032 32.8387 0.656032 33.1043C0.74333 33.2052 0.848345 33.2814 0.963388 33.3274C1.07843 33.3733 1.20059 33.3879 1.32093 33.37C1.0993 33.6356 0.656032 33.9012 0.656032 34.4325C0.878566 35.1158 0.878566 35.8744 0.656032 36.5577C0.619211 38.5979 0.693245 40.6388 0.877665 42.6674C1.0993 43.1987 1.54256 43.1987 0.877665 44.5269C0.656032 45.3239 1.32093 45.8551 1.32093 46.6521C1.32093 46.9177 0.877665 47.1833 0.877665 47.449C0.656032 50.3711 1.0993 53.5588 0.877665 56.4808C1.54256 57.5434 1.98583 58.8716 1.0993 60.1998H1.7642C1.7642 60.4655 1.54256 60.4655 1.54256 60.7311C1.54256 60.9967 1.98583 61.528 1.7642 61.7937C1.0993 62.0593 1.54256 63.1219 1.0993 63.6532C1.54256 63.9188 1.54256 64.1844 1.32093 65.5127C1.0993 66.0439 1.7642 66.8409 1.7642 67.3722C1.54256 70.2942 0.877665 73.7476 1.98583 76.404C1.0993 77.2009 1.54256 78.2635 1.54256 79.326C1.32093 80.123 1.98583 80.9199 1.7642 81.7168V84.6389L2.4291 86.2327C1.98583 86.4984 1.54256 86.764 1.54256 87.0297C1.7642 87.545 1.7642 88.063 1.5603 88.8201C0.698146 88.6155 -0.148496 88.5173 2.4291 90.7487C2.26103 90.7765 2.10528 90.8699 1.98583 91.0143C1.7642 91.5456 2.20746 92.0769 2.20746 92.3425C1.98583 92.8738 1.54256 93.1394 1.7642 93.9364C1.85149 94.0372 1.95651 94.1135 2.07155 94.1594C2.1866 94.2054 2.30876 94.2199 2.4291 94.202C2.20746 94.7333 1.7642 94.9989 1.7642 95.5302C1.7642 96.5928 2.87236 96.0615 3.53726 96.5928C3.094 97.1241 2.4291 96.8584 1.98583 97.3897C1.87617 97.4655 1.79479 97.5886 1.75834 97.7339C1.72189 97.8791 1.73311 98.0356 1.78972 98.1713C1.84632 98.307 1.94404 98.4117 2.06289 98.4639C2.18173 98.5161 2.31273 98.512 2.4291 98.4523C2.20746 98.7179 1.98583 98.9836 1.98583 99.2492C1.85063 99.8947 2.12546 100.147 2.41137 100.426C2.35818 100.583 2.20746 100.623 2.20746 100.843H2.4291V100.445C2.62909 100.608 2.78353 100.839 2.87236 101.109H2.4291C2.20746 101.64 2.4291 102.171 2.20746 102.968C1.7642 103.765 2.20746 105.093 2.65073 106.156C2.65073 106.422 0.212766 103.499 2.4291 108.281C2.4291 108.281 1.98583 108.547 1.98583 108.812C1.7642 109.344 2.20746 109.609 2.4291 110.141C2.4291 110.406 1.98583 110.672 1.98583 110.937C1.7642 112 2.4291 112.797 1.98583 114.125C1.98583 114.391 3.094 114.656 2.87236 115.188C2.65073 115.453 1.7642 115.188 1.7642 115.985C1.7642 116.25 2.4291 116.516 2.65073 117.047C2.87236 117.579 2.20746 117.844 1.98583 118.375C1.98583 118.907 2.65073 119.438 2.65073 119.969C2.87236 120.501 2.4291 121.298 1.7642 121.563C1.98583 121.829 2.4291 121.829 2.65073 122.094C2.65073 122.36 2.20746 122.891 1.98583 123.157C1.98583 123.423 1.7642 123.688 2.20746 123.688L1.98583 123.954C2.07313 124.055 2.17814 124.131 2.29319 124.177C2.40823 124.223 2.53039 124.237 2.65073 124.22C2.73042 124.302 2.79436 124.404 2.83819 124.518C2.88202 124.633 2.90471 124.758 2.90471 124.884C2.90471 125.01 2.88202 125.134 2.83819 125.249C2.79436 125.364 2.73042 125.465 2.65073 125.548C4.20216 126.079 2.65073 128.204 3.53726 129.532L3.75889 129.267C4.20216 129.532 4.20216 130.064 4.64543 130.329C4.86706 130.329 4.64543 128.47 5.75359 131.126C5.75359 130.861 5.75359 130.329 5.97523 130.329C6.64012 130.329 7.08339 130.861 7.74829 130.329C8.41319 132.72 10.1863 131.392 11.5161 130.595C11.2825 130.302 11.128 129.932 11.0728 129.532C11.0728 129.001 11.2944 129.267 11.5161 129.267C12.181 129.798 11.9593 131.392 12.8459 131.392C13.2891 131.126 12.8458 130.064 13.2891 129.798C13.5107 129.798 13.5108 130.064 13.7324 130.064C14.1756 130.595 14.1756 131.126 14.3973 131.658C14.6189 131.923 15.0622 132.72 15.7271 131.126C15.9487 131.392 16.1703 131.923 16.6136 131.923C16.8352 131.923 16.8352 131.392 17.0569 131.392C17.9434 131.392 19.0516 131.658 19.9381 131.126C20.2715 131.192 20.5804 131.378 20.8246 131.658C21.4895 131.923 21.7112 131.392 21.9328 130.861C22.1544 131.126 22.1544 131.923 23.2626 130.861C23.2859 131.062 23.3637 131.249 23.4842 131.392C24.3708 131.923 25.4789 131.126 26.3655 131.392C27.252 131.392 28.1385 131.126 29.0251 131.658C29.2467 131.658 29.2467 131.392 29.4683 131.392C29.5888 131.535 29.6667 131.722 29.69 131.923C30.1332 131.658 30.5765 131.126 31.0198 130.861C31.2414 130.861 31.6847 131.392 31.9063 131.392C32.5712 131.126 33.0145 131.126 33.901 131.658C34.3443 131.923 35.2308 130.861 35.6741 131.392C36.5606 132.189 36.7822 131.126 37.6688 131.126C37.6688 131.392 37.6688 131.923 37.8904 132.189C38.112 131.923 38.3337 131.392 38.5553 131.392C38.9986 131.392 39.4418 131.392 39.8851 130.861C40.0045 131.005 40.1603 131.098 40.3284 131.126C40.9933 131.392 41.2149 130.595 41.6581 130.595C41.4365 130.861 41.4365 131.392 41.4365 131.658C42.1014 131.126 42.5447 131.658 42.9879 131.923C42.998 131.716 43.0713 131.52 43.1938 131.373C43.3164 131.226 43.4798 131.138 43.6528 131.126C44.761 131.392 45.6475 131.392 45.6475 130.064C45.8692 130.595 46.3124 131.392 46.7557 131.658C47.4206 131.658 48.3071 131.126 48.972 130.861V130.885C48.9432 131.15 48.5399 131.663 48.7504 131.918C48.961 132.173 49.4153 131.652 49.6369 131.652V131.286C51.1884 131.469 52.6002 131.395 54.1893 130.683C54.6326 130.683 54.8542 130.948 55.2975 130.948C57.0705 130.683 58.622 131.357 60.395 131.357C60.5856 131.387 60.7806 131.408 60.9779 131.418C61.0797 131.428 61.182 131.428 61.2838 131.418C61.5061 131.421 61.7284 131.404 61.9487 131.368C62.1703 131.368 62.6136 131.634 62.8352 131.634C64.165 131.102 65.4948 130.571 66.8246 131.899C67.0462 131.899 67.4895 131.102 67.7111 131.102C68.376 131.634 69.4842 131.368 69.9274 130.837C70.3707 130.571 70.814 131.368 71.2572 131.102V131.634C72.3654 130.837 73.4736 130.837 74.3601 131.899C76.7981 131.368 79.4577 131.899 81.8956 131.899C82.1173 131.899 82.3389 131.368 82.5605 131.368C83.4471 131.634 84.112 131.899 84.9985 131.368C86.3283 132.165 87.6581 131.899 88.9879 132.165C89.2095 132.165 89.6528 131.634 89.8744 131.634C90.3177 131.634 90.5393 132.165 90.9826 132.165C91.4258 131.899 91.8691 131.899 92.534 132.165C92.9773 132.165 93.1989 131.634 93.4205 131.368C93.6422 131.634 93.6422 131.899 93.8638 132.165C94.0854 131.899 94.3071 131.634 94.5287 131.634C94.7504 131.634 94.7503 131.899 94.972 132.165C95.1936 131.899 95.1936 131.634 95.4152 131.368C95.6369 131.634 95.6369 131.899 95.8585 132.165C96.5234 132.431 97.1883 131.368 97.6316 131.634C98.0749 131.634 98.5181 131.102 99.183 131.368L98.9614 131.634C99.183 131.634 99.183 131.899 99.4046 131.899C100.291 131.899 100.734 131.368 101.843 131.899C102.064 132.165 102.507 131.368 102.729 131.102C103.172 131.102 103.172 132.165 103.616 132.431C104.281 130.837 104.724 131.899 105.61 132.165C106.054 132.431 106.719 131.899 107.162 131.899C107.383 131.899 107.827 132.431 108.048 132.431C108.27 132.165 108.27 131.634 108.492 131.368C108.492 131.634 108.713 132.165 108.713 132.431L109.378 131.634C109.378 131.899 109.6 132.165 109.6 132.431C109.821 132.165 110.043 131.634 110.265 131.634C110.486 131.634 110.708 132.165 110.93 132.431C112.038 132.962 112.703 131.634 112.481 130.305C112.6 130.161 112.756 130.068 112.924 130.04C113.146 130.837 112.924 131.899 114.032 132.165C114.697 132.165 115.362 131.899 116.027 132.431C116.027 131.899 116.47 132.696 116.47 131.634C116.59 131.489 116.746 131.396 116.914 131.368C116.692 131.634 116.692 131.899 116.47 132.165C116.914 132.431 117.579 132.962 118.243 131.634C118.243 131.368 117.8 131.102 117.579 130.837C118.022 130.837 118.243 130.04 118.908 131.102C118.465 131.634 118.908 132.165 118.687 132.696H119.13C119.795 131.102 121.346 132.165 122.233 131.368C122.676 130.571 122.898 129.508 123.119 128.712C123.119 128.446 122.898 127.915 122.898 127.649C122.898 127.915 122.676 128.18 122.676 128.446C122.454 128.18 122.011 127.915 121.79 127.649C121.79 127.383 122.011 127.383 122.011 127.118C121.838 127.106 121.675 127.018 121.552 126.871C121.43 126.724 121.356 126.528 121.346 126.321C121.355 125.828 121.512 125.356 121.79 124.993C122.011 124.727 122.676 124.993 122.454 124.461C122.335 124.317 122.179 124.224 122.011 124.196C121.568 123.664 121.79 122.867 121.79 122.336C121.79 121.008 122.676 123.399 122.676 121.274C122.011 121.008 121.79 119.945 121.125 119.414C121.346 119.148 121.568 119.148 121.568 118.883C121.346 118.617 120.903 118.352 120.903 118.086C121.125 117.555 121.568 117.023 121.568 116.492C120.903 114.898 121.346 112.773 122.898 112.507C121.597 112.507 121.346 110.98 121.555 109.67C122.025 109.373 122.707 109.474 122.898 108.788C122.898 107.46 121.346 106.663 122.233 105.069C121.346 104.538 121.346 102.944 122.233 102.147C121.79 100.819 120.46 98.4284 122.454 97.3658C123.341 97.1002 121.79 96.5689 121.79 95.772C121.79 95.5063 122.233 95.5063 122.454 95.2407L122.233 94.7094C121.79 94.4437 121.346 95.2407 121.125 94.975C120.903 94.4437 121.79 94.1781 121.79 93.6468C121.79 93.1155 121.346 92.3186 121.346 91.7873C121.346 90.4591 122.454 90.4591 123.119 89.6622L122.898 89.1309C122.454 89.1309 121.568 90.1935 121.568 89.1309C121.346 88.8653 122.011 88.334 121.79 87.5371C122.011 87.8027 122.676 87.537 122.676 87.0058C122.676 86.4745 121.346 86.7401 122.011 85.1463C122.24 85.1622 122.24 85.4278 122.461 85.4278ZM71.2639 123.149C71.437 123.137 71.6003 123.049 71.7229 122.902C71.8455 122.755 71.9188 122.56 71.9288 122.352C71.7072 122.086 71.2639 122.086 71.0423 122.086C71.0423 122.352 71.0423 122.883 71.2639 123.149ZM76.1398 122.618C76.3615 122.883 76.5831 123.68 77.248 123.149C77.4696 122.883 77.248 122.352 77.0264 121.821C76.8047 122.086 76.3615 122.352 76.1398 122.618ZM105.839 123.68C105.839 123.415 106.06 123.149 106.06 122.883L105.839 122.618C105.724 122.627 105.615 122.686 105.534 122.784C105.452 122.881 105.403 123.011 105.395 123.149C105.395 123.415 105.617 123.415 105.839 123.68ZM111.601 123.946C111.769 123.918 111.925 123.825 112.044 123.68C111.823 122.883 110.936 123.149 110.493 123.68H111.379L111.601 123.946ZM72.8153 123.149C72.9192 122.905 73.0781 122.701 73.274 122.56C73.47 122.419 73.695 122.347 73.9235 122.352C73.7019 122.352 73.7019 122.086 73.4802 122.086C73.2586 122.352 72.8153 122.086 72.8153 123.149ZM68.3827 122.883C68.3976 122.739 68.3855 122.593 68.3471 122.455C68.3088 122.317 68.2452 122.191 68.161 122.086H67.2745C67.7178 122.352 67.9394 122.618 68.3827 122.883ZM91.2109 122.618C91.2109 122.883 91.4325 123.149 91.6541 123.415C91.6541 123.149 91.8758 122.618 91.4325 122.352L91.2109 122.618ZM78.3562 122.883C78.3562 122.618 78.5778 122.352 78.5778 122.086H78.1345V122.618L78.3562 122.883ZM120.466 132.978C120.688 132.978 120.688 132.712 120.91 132.712L120.688 132.447C120.245 132.447 120.466 132.712 120.466 132.978ZM96.7517 123.415C96.7517 123.149 96.9733 123.149 96.9733 122.883C96.7517 122.883 96.5301 122.883 96.5301 123.149L96.7517 123.415ZM118.915 10.7824C118.693 10.5168 118.472 9.98548 118.028 9.98548C117.807 9.98548 117.585 10.5168 117.364 10.5168C116.699 10.5168 115.812 10.2511 115.147 11.048C116.034 11.845 117.142 12.1106 118.028 11.048C118.25 10.5168 118.693 10.7824 118.915 10.7824ZM122.461 119.696C122.629 119.668 122.785 119.574 122.904 119.43C122.904 118.899 123.348 118.102 122.018 117.836C122.127 118.081 122.184 118.355 122.184 118.633C122.184 118.911 122.127 119.185 122.018 119.43C122.24 119.43 122.24 119.696 122.461 119.696ZM122.018 98.9756C122.018 99.5069 122.018 99.7725 122.683 100.038L122.904 99.7725C122.904 99.5069 122.683 99.5069 122.683 99.2412C122.595 99.1404 122.49 99.0641 122.375 99.0182C122.26 98.9722 122.138 98.9577 122.018 98.9756ZM120.466 7.06342C120.361 6.90139 120.227 6.76962 120.073 6.67771C119.92 6.5858 119.751 6.53606 119.58 6.53213L119.358 6.79777C119.602 7.0777 119.911 7.26285 120.245 7.32906L120.466 7.06342ZM115.812 12.3763C115.369 12.1106 115.147 12.1106 114.704 11.845C114.704 12.1106 114.704 12.3763 114.926 12.3763H115.812ZM121.575 7.06342C121.553 6.98471 121.512 6.91556 121.457 6.86472C121.402 6.81387 121.336 6.78362 121.267 6.77776C121.198 6.77191 121.129 6.79073 121.069 6.83184C121.009 6.87295 120.96 6.9345 120.929 7.00873C120.898 7.08295 120.886 7.16651 120.895 7.24885C120.904 7.33118 120.932 7.4086 120.978 7.47131C121.023 7.53403 121.083 7.57922 121.15 7.60118C121.217 7.62315 121.287 7.62088 121.353 7.5947C121.353 7.32906 121.575 7.32906 121.575 7.06342ZM122.683 72.677C122.683 72.4114 122.461 72.4114 122.461 72.1457C122.377 72.2504 122.313 72.3762 122.275 72.5141C122.237 72.652 122.225 72.7984 122.24 72.9427C122.461 72.9427 122.683 72.9427 122.683 72.677ZM117.364 8.65727C117.142 8.39163 117.364 7.86034 116.477 8.39163L116.92 8.92291C117.142 8.92291 117.142 8.65727 117.364 8.65727ZM119.137 9.45419C118.915 9.45419 118.915 9.18855 118.693 9.18855L118.472 9.45419C118.693 9.45419 118.693 9.71984 118.915 9.71984L119.137 9.45419ZM122.24 111.461C122.24 111.726 122.24 111.992 122.683 111.992L122.904 111.726C122.904 111.461 122.683 111.461 122.683 111.195C122.461 111.195 122.461 111.461 122.24 111.461ZM120.91 10.5168C121.131 10.5168 121.131 10.2511 121.353 10.2511C121.131 10.2511 120.91 10.2511 120.91 10.5168ZM120.466 11.3137L120.245 11.5793C120.466 11.845 120.688 12.1106 120.91 11.845C121.131 11.5793 120.688 11.3137 120.466 11.3137ZM122.461 42.9251L122.24 43.1907C122.327 43.2916 122.432 43.3678 122.547 43.4138C122.662 43.4598 122.784 43.4743 122.904 43.4564C122.683 43.1907 122.683 42.9251 122.461 42.9251ZM123.126 122.618L122.683 122.086C122.683 122.352 122.24 122.883 122.904 122.883L123.126 122.618ZM122.683 116.242C122.461 116.242 122.461 116.242 122.461 116.508H122.904L122.683 116.242ZM122.461 126.868C122.683 126.868 122.683 126.602 122.683 126.337C122.461 126.337 122.461 126.602 122.461 126.868ZM121.796 110.133L121.575 109.867V110.398L121.796 110.133ZM46.441 122.78V121.656C46.2881 122.02 46.2415 122.519 46.441 122.785V122.78ZM59.739 121.125C59.739 120.859 59.739 120.594 59.0741 120.594C59.0741 120.859 59.0741 121.125 59.739 121.125ZM51.0953 120.859C51.0953 121.125 51.3169 121.125 51.3169 121.39L51.7602 120.859C51.5386 120.859 51.5386 120.594 51.3169 120.594L51.0953 120.859Z" fill="#554359"/>
<path d="M181.506 144.705C181.7 144.394 181.991 144.239 182.38 144.239H187.562C187.756 144.239 187.912 144.317 188.028 144.472C188.144 144.588 188.183 144.744 188.144 144.938L183.311 184.301C183.311 184.495 183.234 184.67 183.078 184.825C182.923 184.942 182.748 185 182.554 185H177.372C177.178 185 177.023 184.942 176.906 184.825C176.79 184.67 176.751 184.495 176.79 184.301L180.167 156.817C180.206 156.661 180.167 156.584 180.05 156.584C179.973 156.584 179.895 156.642 179.818 156.758L173.762 165.959C173.568 166.269 173.393 166.425 173.238 166.425C173.16 166.425 173.063 166.386 172.946 166.308C172.869 166.231 172.811 166.114 172.772 165.959L168.987 156.758C168.948 156.642 168.89 156.584 168.812 156.584C168.734 156.584 168.676 156.661 168.637 156.817L165.26 184.301C165.221 184.495 165.124 184.67 164.969 184.825C164.852 184.942 164.697 185 164.503 185H159.321C159.127 185 158.971 184.942 158.855 184.825C158.738 184.67 158.699 184.495 158.738 184.301L163.571 144.938C163.571 144.744 163.649 144.588 163.804 144.472C163.96 144.317 164.134 144.239 164.328 144.239H169.511C169.899 144.239 170.151 144.394 170.268 144.705L174.577 154.662C174.655 154.856 174.752 154.856 174.868 154.662L181.506 144.705Z" fill="#554359"/>
<path d="M191.083 185C190.656 185 190.442 184.767 190.442 184.301L195.275 144.938C195.314 144.744 195.411 144.588 195.567 144.472C195.722 144.317 195.896 144.239 196.091 144.239H201.273C201.467 144.239 201.622 144.317 201.739 144.472C201.855 144.588 201.894 144.744 201.855 144.938L197.022 184.301C196.983 184.495 196.886 184.67 196.731 184.825C196.615 184.942 196.459 185 196.265 185H191.083Z" fill="#554359"/>
<path d="M214.129 185.466C211.217 185.466 208.907 184.651 207.199 183.02C205.53 181.351 204.695 179.099 204.695 176.266C204.695 175.877 204.734 175.295 204.812 174.519L207.258 154.662C207.646 151.324 208.927 148.684 211.101 146.743C213.313 144.763 216.031 143.773 219.253 143.773C222.164 143.773 224.474 144.588 226.182 146.219C227.89 147.849 228.744 150.081 228.744 152.915C228.744 153.303 228.706 153.886 228.628 154.662L228.512 155.361C228.512 155.555 228.434 155.73 228.279 155.885C228.123 156.04 227.949 156.118 227.755 156.118L222.514 156.351C222.048 156.351 221.834 156.118 221.873 155.652L222.048 154.196C222.087 154.002 222.106 153.73 222.106 153.381C222.106 152.217 221.776 151.304 221.116 150.644C220.495 149.946 219.622 149.596 218.496 149.596C217.293 149.596 216.264 150.023 215.41 150.877C214.595 151.731 214.09 152.838 213.896 154.196L211.334 175.043C211.295 175.237 211.275 175.509 211.275 175.858C211.275 177.022 211.586 177.954 212.207 178.653C212.867 179.313 213.74 179.643 214.827 179.643C216.07 179.643 217.118 179.216 217.972 178.362C218.826 177.508 219.35 176.401 219.544 175.043L219.719 173.587C219.719 173.393 219.796 173.238 219.952 173.121C220.107 172.966 220.282 172.888 220.476 172.888L225.658 173.121C226.085 173.121 226.299 173.354 226.299 173.82L226.182 174.519C225.794 177.818 224.494 180.477 222.281 182.496C220.068 184.476 217.351 185.466 214.129 185.466Z" fill="#554359"/>
<path d="M250.484 144.938C250.523 144.744 250.6 144.588 250.717 144.472C250.872 144.317 251.047 144.239 251.241 144.239H256.423C256.617 144.239 256.773 144.317 256.889 144.472C257.006 144.588 257.044 144.744 257.006 144.938L252.172 184.301C252.172 184.495 252.095 184.67 251.94 184.825C251.784 184.942 251.61 185 251.415 185H246.233C246.039 185 245.884 184.942 245.767 184.825C245.651 184.67 245.612 184.495 245.651 184.301L247.689 167.822C247.689 167.628 247.592 167.531 247.398 167.531H240.235C240.041 167.531 239.944 167.628 239.944 167.822L237.906 184.301C237.867 184.495 237.77 184.67 237.615 184.825C237.498 184.942 237.343 185 237.149 185H231.967C231.54 185 231.326 184.767 231.326 184.301L236.159 144.938C236.198 144.744 236.295 144.588 236.45 144.472C236.606 144.317 236.78 144.239 236.974 144.239H242.157C242.351 144.239 242.506 144.317 242.623 144.472C242.739 144.588 242.778 144.744 242.739 144.938L240.701 161.359C240.701 161.553 240.798 161.65 240.992 161.65H248.155C248.349 161.65 248.446 161.553 248.446 161.359L250.484 144.938Z" fill="#554359"/>
<path d="M260.085 185C259.658 185 259.445 184.767 259.445 184.301L264.278 144.938C264.317 144.744 264.414 144.588 264.569 144.472C264.724 144.317 264.899 144.239 265.093 144.239H270.276C270.47 144.239 270.625 144.317 270.741 144.472C270.858 144.588 270.897 144.744 270.858 144.938L266.025 184.301C265.986 184.495 265.889 184.67 265.734 184.825C265.617 184.942 265.462 185 265.268 185H260.085Z" fill="#554359"/>
<path d="M283.131 185.466C280.22 185.466 277.91 184.67 276.202 183.078C274.533 181.487 273.698 179.332 273.698 176.615C273.698 176.266 273.737 175.703 273.814 174.926L276.318 154.313C276.707 151.13 277.988 148.587 280.162 146.685C282.335 144.744 285.033 143.773 288.255 143.773C291.167 143.773 293.477 144.588 295.185 146.219C296.932 147.849 297.805 150.043 297.805 152.799C297.805 153.148 297.766 153.672 297.689 154.371L297.398 156.642C297.359 156.836 297.262 157.011 297.106 157.166C296.99 157.283 296.835 157.341 296.641 157.341H291.4C291.206 157.341 291.051 157.283 290.934 157.166C290.818 157.011 290.779 156.836 290.818 156.642L291.109 154.255C291.148 154.06 291.167 153.789 291.167 153.439C291.167 152.275 290.837 151.343 290.177 150.644C289.517 149.946 288.624 149.596 287.498 149.596C286.295 149.596 285.266 150.023 284.412 150.877C283.558 151.731 283.034 152.857 282.84 154.255L280.278 174.984C280.239 175.179 280.22 175.45 280.22 175.8C280.22 176.964 280.53 177.896 281.151 178.595C281.811 179.293 282.704 179.643 283.83 179.643C285.072 179.643 286.14 179.216 287.033 178.362C287.926 177.508 288.45 176.382 288.605 174.984L289.245 169.394C289.323 169.2 289.245 169.103 289.012 169.103H285.577C285.383 169.103 285.228 169.045 285.111 168.929C284.995 168.773 284.956 168.599 284.995 168.404L285.519 164.154C285.557 163.96 285.635 163.804 285.752 163.688C285.907 163.533 286.082 163.455 286.276 163.455H295.884C296.078 163.455 296.233 163.533 296.349 163.688C296.466 163.804 296.505 163.96 296.466 164.154L295.127 174.926C294.738 178.109 293.438 180.672 291.225 182.613C289.012 184.515 286.314 185.466 283.131 185.466Z" fill="#554359"/>
<path d="M316.056 185C315.629 185 315.416 184.786 315.416 184.359L315.125 178.245C315.125 178.051 315.008 177.954 314.775 177.954H306.565C306.371 177.954 306.235 178.051 306.157 178.245L304.352 184.359C304.236 184.786 303.964 185 303.537 185H298.413C297.908 185 297.733 184.748 297.888 184.243L311.048 144.88C311.165 144.453 311.437 144.239 311.864 144.239H317.861C318.288 144.239 318.502 144.453 318.502 144.88L322.054 184.243V184.359C322.054 184.786 321.821 185 321.355 185H316.056ZM307.904 172.364C307.865 172.558 307.962 172.655 308.195 172.655H314.426C314.659 172.655 314.775 172.558 314.775 172.364L313.727 153.963C313.727 153.847 313.688 153.789 313.611 153.789C313.533 153.789 313.455 153.847 313.378 153.963L307.904 172.364Z" fill="#554359"/>
<path d="M347.987 144.938C348.026 144.744 348.104 144.588 348.22 144.472C348.375 144.317 348.55 144.239 348.744 144.239H353.868C354.063 144.239 354.218 144.317 354.334 144.472C354.451 144.588 354.49 144.744 354.451 144.938L349.618 184.301C349.618 184.495 349.54 184.67 349.385 184.825C349.229 184.942 349.055 185 348.861 185H342.979C342.591 185 342.358 184.806 342.281 184.418L336.923 159.728C336.885 159.612 336.807 159.573 336.691 159.612C336.613 159.612 336.574 159.67 336.574 159.786L333.604 184.301C333.566 184.495 333.468 184.67 333.313 184.825C333.197 184.942 333.041 185 332.847 185H327.723C327.296 185 327.083 184.767 327.083 184.301L331.916 144.938C331.955 144.744 332.052 144.588 332.207 144.472C332.362 144.317 332.537 144.239 332.731 144.239H338.496C338.884 144.239 339.117 144.433 339.194 144.821L344.668 169.336C344.668 169.453 344.707 169.511 344.785 169.511C344.901 169.472 344.979 169.394 345.017 169.278L347.987 144.938Z" fill="#554359"/>
</svg>
