<svg width="47" height="41" viewBox="0 0 47 41" fill="none" xmlns="http://www.w3.org/2000/svg"> <path d="M5.4594 15.2922C12.677 15.3373 19.9397 15.3825 27.1572 15.4276C28.6007 15.4276 28.6007 13.1721 27.1572 13.1721C19.9397 13.127 12.677 13.0819 5.4594 13.0367C4.01589 13.0367 4.01589 15.2922 5.4594 15.2922Z" fill="#393939"></path> <path d="M5.82069 17.9086C4.33206 17.8635 4.37717 20.119 5.82069 20.1641C12.948 20.4348 14.6171 20.4348 21.7444 20.2092C23.188 20.1641 23.188 17.9086 21.7444 17.9537C14.6171 18.2244 12.948 18.2244 5.82069 17.9086Z" fill="#393939"></path> <path d="M22.8723 25.442C24.3158 25.4871 24.3158 23.2317 22.8723 23.1865C15.6096 23.1414 12.8579 23.0963 5.5501 23.0061C4.10659 23.0061 4.10659 25.2616 5.5501 25.2616C12.8128 25.3067 15.5645 25.3518 22.8723 25.442Z" fill="#393939"></path> <path d="M15.474 28.5545C12.3614 28.5997 9.24883 28.5094 6.13625 28.2839C4.69274 28.1937 4.69274 30.4492 6.13625 30.5394C9.24883 30.7198 12.3614 30.81 15.474 30.81C16.9175 30.7649 16.9175 28.5094 15.474 28.5545Z" fill="#393939"></path> <path d="M45.3684 16.4335C45.2782 16.3433 45.188 16.2576 45.1068 16.1719C44.7414 15.7839 44.5204 15.5358 44.2993 15.2832C44.0332 14.981 43.7535 14.6652 43.2257 14.1194C42.8513 13.7359 42.0664 13.0322 41.5612 12.7435C39.8966 11.7962 38.2772 13.4202 37.3118 14.39L37.2667 14.4351C35.9811 15.7208 34.6954 17.0244 33.4233 18.3281C33.2925 16.5779 33.1256 14.8366 32.9317 13.0818C32.7963 11.7285 32.6159 10.3301 32.4806 8.97685C32.3452 7.84911 32.4354 6.4507 32.0746 5.36807C31.3979 3.47345 29.368 4.01477 27.6989 4.01477H27.4734V1.08264C27.4283 -0.360878 25.1728 -0.360878 25.2179 1.08264V4.05988C24.451 4.05988 23.7293 4.05988 22.9624 4.10499V1.80439C22.9624 0.360878 20.7069 0.360878 20.7069 1.80439V4.10499H18.8574V1.75928C18.8574 0.315769 16.6019 0.315769 16.6019 1.75928V4.10499H14.4817V2.3006C14.4817 0.857086 12.2263 0.857086 12.2263 2.3006V4.10499H10.1061V2.39082C10.061 0.947306 7.80549 0.947306 7.8506 2.39082V4.1501H6.22665V2.16527C6.22665 0.721757 3.97116 0.721757 3.97116 2.16527V4.19521C3.06896 4.19521 2.12166 4.19521 1.21946 4.24032C0.272156 4.24032 -0.0436128 5.23274 0.227046 5.90938C-0.63004 17.1417 1.26457 28.2838 0.587924 39.426C0.542815 40.4184 1.58034 40.7342 2.25699 40.3733C2.39232 40.4184 2.57276 40.4635 2.75319 40.4635C12.4969 40.4184 22.2406 40.1928 31.9843 39.7868C32.1648 39.7868 32.3452 39.7417 32.4806 39.6515C33.0219 39.6515 33.6083 39.2906 33.6083 38.5689C33.694 35.0774 33.7481 31.5904 33.7346 28.1124C35.4443 26.3757 37.1224 24.7247 38.7508 22.8977C39.247 22.3429 39.8289 21.8016 40.3477 21.2648C40.8529 20.737 41.3988 20.2408 41.904 19.7085C42.0529 19.5596 42.1972 19.4153 42.3461 19.2754C42.4949 19.1266 42.6483 18.9822 42.7927 18.8333L43.7039 17.9266C43.8166 18.0078 43.9159 18.0935 44.0151 18.1793C44.0422 18.2018 44.0693 18.2244 44.0963 18.2514C43.8663 18.5356 43.6272 18.8108 43.3971 19.0679L36.7525 25.7036C36.3239 26.1321 36.2833 26.7862 36.6622 27.1651C37.0412 27.544 37.6952 27.5034 38.1238 27.0749C38.1238 27.0749 44.7685 20.4032 44.7775 20.3987C45.2556 19.8799 45.6887 19.3611 46.0676 18.8559C46.8164 17.8545 45.9458 16.9974 45.3684 16.4335ZM2.93363 38.208C3.38473 27.6523 1.76078 17.0966 2.48254 6.54092H4.01627V7.93933C3.97116 9.38284 6.22665 9.38284 6.22665 7.93933V6.54092H7.8506C7.8506 7.12735 7.8506 7.71378 7.80549 8.3002C7.76038 9.74372 10.0159 9.74372 10.061 8.3002C10.1061 7.71378 10.1061 7.08224 10.1061 6.49581C10.8278 6.49581 11.5045 6.49581 12.2263 6.4507V8.25509C12.2263 9.69861 14.4817 9.69861 14.4817 8.25509V6.40559H16.6019C16.6019 6.72136 16.6921 7.44312 16.6921 7.71378C16.241 8.3002 16.3312 9.24751 17.2334 9.47306C17.2786 9.47306 17.2786 9.47306 17.3237 9.51817C17.8199 9.6535 18.3612 9.42795 18.5867 9.02196C18.9927 8.3002 18.9025 7.30779 18.8574 6.40559H20.7069V8.07465C20.7069 9.51817 22.9624 9.51817 22.9624 8.07465V6.36048C23.6841 6.36048 24.451 6.36048 25.1728 6.31537V7.66867C25.1277 9.11218 27.3831 9.11218 27.4283 7.66867C27.4283 7.17246 27.4283 6.72136 27.4734 6.22515C28.3305 6.18004 29.1875 6.13493 29.9995 6.22515C30.5408 8.34531 30.4957 10.9166 30.7213 13.0818C30.9919 15.5178 31.1904 17.9898 31.3303 20.4618C30.825 20.9806 30.3198 21.4993 29.8236 22.0091C27.3967 24.5036 24.8886 27.0839 22.3895 29.583C22.3534 29.6191 22.3083 29.6642 22.2812 29.7093C21.582 30.6115 21.5008 31.6941 21.4241 32.7362C21.3881 33.2459 21.352 33.7241 21.2437 34.1752L21.2302 34.2248C21.1535 34.5406 21.0723 34.8969 21.1625 35.2398C21.3204 35.8307 21.8211 35.9841 22.3444 35.9841C22.6872 35.9841 23.0391 35.9209 23.3188 35.8668C23.4315 35.8488 23.5353 35.8262 23.6345 35.8127C24.3157 35.7044 24.9021 35.5871 25.4254 35.4608L26.0118 35.321C26.0704 35.312 26.2554 35.2804 26.3817 35.2082C26.6704 35.0864 26.9411 34.9015 27.1396 34.6894C28.5831 33.2459 30.1439 31.8701 31.5197 30.4085C31.5107 32.8039 31.4836 35.1947 31.443 37.581C21.97 37.9373 12.4518 38.1629 2.93363 38.208ZM42.1431 16.7132C42.0799 16.7673 42.0213 16.8214 41.9671 16.8756C40.1537 18.689 38.3629 20.5926 36.6352 22.4286C34.5962 24.5939 32.4851 26.8358 30.3333 28.9425C29.7965 29.4702 29.2597 29.9574 28.5605 30.5844L28.1004 31.0446C27.6222 31.4551 27.1937 31.8881 26.7787 32.3031C26.6839 32.3979 26.5892 32.5016 26.4945 32.6054C26.1652 32.9572 25.8269 33.3226 25.4254 33.4128C24.7623 33.5617 24.0901 33.688 23.418 33.7963C23.4721 33.4715 23.5172 32.9662 23.5353 32.1904C23.5443 32.0054 23.5623 31.7844 23.6165 31.419C23.63 30.8596 24.451 30.1153 25.051 29.5695C25.2585 29.3845 25.4479 29.2086 25.5923 29.0597L28.2899 26.2674C29.7695 24.7878 31.2581 23.2631 32.6926 21.7925C34.1316 20.3175 35.6157 18.7973 37.0953 17.3131C37.4156 16.9929 37.7404 16.6726 38.0606 16.3523C38.7012 15.7163 39.3688 15.0622 40.0004 14.4036C40.1131 14.399 40.2124 14.3765 40.2891 14.3539C40.4424 14.3179 40.4424 14.3179 40.5056 14.3765C40.9657 14.8366 41.4168 15.3148 41.8544 15.7975C41.8995 15.8471 41.9762 15.9147 42.0619 15.9959C42.1701 16.0907 42.4182 16.3162 42.4498 16.3749C42.4408 16.447 42.2423 16.6275 42.1431 16.7132Z" fill="#393939"></path> </svg>